<?xml version="1.0" encoding="utf-8"?>
<!-- Generator: Adobe Illustrator 21.0.2, SVG Export Plug-In . SVG Version: 6.00 Build 0)  -->
<svg version="1.1" id="Layer_1" xmlns="http://www.w3.org/2000/svg" xmlns:xlink="http://www.w3.org/1999/xlink" x="0px" y="0px"
	 viewBox="0 0 1920 1080" style="enable-background:new 0 0 1920 1080;" xml:space="preserve">
<style type="text/css">
	.st0{fill:#9CC7AC;}
	.st1{fill:#BDDFCF;}
	.st2{fill:#FFF2D7;}
	.st3{fill:#2D2415;}
	.st4{fill:#FFFFFF;}
	.st5{fill:#042F42;}
	.st6{font-family:'HelveticaNeue-Bold';}
	.st7{font-size:70.5579px;}
</style>
<g>
	<rect y="320" class="st0" width="1920" height="760"/>
	<rect y="317" class="st1" width="1920" height="88"/>
	<path class="st2" d="M852.2,348.2c-7.5-12.6-11.7-34.9,1.2-46.5c12.6-11.3,32.3-4.4,34.6-3.6c12.3,4.5,27.3,16.9,26.8,34
		c-0.5,20.8-23.7,37.2-41.7,33.4C860.9,362.9,854.4,351.9,852.2,348.2"/>
	<path class="st3" d="M882,340c-0.4,0.4,3.2,3.5,6,10c2.7,6.4,2.4,11,3,11c0.7,0,2.3-6.2,0-12C888.5,342.9,882.5,339.5,882,340"/>
	<path class="st3" d="M896.5,330.5c-0.4,0.4,3.2,3.5,6,10c2.7,6.4,2.4,11,3,11c0.7,0,2.3-6.2,0-12C903,333.4,897,330,896.5,330.5"/>
	<path class="st3" d="M907.5,319.5c-0.4,0.4,3.2,3.5,6,10c2.7,6.4,2.4,11,3,11c0.7,0,2.3-6.2,0-12C914,322.4,908,319,907.5,319.5"/>
	<path class="st2" d="M1154.6,332.2c7.5-12.6,11.7-34.9-1.2-46.5c-12.6-11.3-32.3-4.4-34.6-3.6c-12.3,4.5-27.3,16.9-26.8,34
		c0.5,20.8,23.7,37.2,41.7,33.4C1145.9,346.9,1152.5,335.9,1154.6,332.2"/>
	<path class="st3" d="M1124.8,324c0.4,0.4-3.2,3.5-6,10c-2.7,6.4-2.4,11-3,11c-0.7,0-2.3-6.2,0-12
		C1118.3,326.9,1124.3,323.5,1124.8,324"/>
	<path class="st3" d="M1110.3,314.5c0.4,0.4-3.2,3.5-6,10c-2.7,6.4-2.4,11-3,11c-0.7,0-2.3-6.2,0-12
		C1103.8,317.4,1109.8,314,1110.3,314.5"/>
	<path class="st3" d="M1099.3,303.5c0.4,0.4-3.2,3.5-6,10c-2.7,6.4-2.4,11-3,11c-0.7,0-2.3-6.2,0-12
		C1092.8,306.4,1098.8,303,1099.3,303.5"/>
</g>
<g>
	<path class="st4" d="M1421,649H527c-6.6,0-12-5.4-12-12V528c0-6.6,5.4-12,12-12h894c6.6,0,12,5.4,12,12v109
		C1433,643.6,1427.6,649,1421,649"/>
</g>
<text transform="matrix(1 0 0 1 558.7905 607.0615)" class="st5 st6 st7">Time to wake up Pepper!</text>
</svg>
