<?xml version="1.0" encoding="utf-8"?>
<!-- Generator: Adobe Illustrator 21.0.2, SVG Export Plug-In . SVG Version: 6.00 Build 0)  -->
<svg version="1.1" id="Layer_1" xmlns="http://www.w3.org/2000/svg" xmlns:xlink="http://www.w3.org/1999/xlink" x="0px" y="0px"
	 viewBox="0 0 600 520" style="enable-background:new 0 0 600 520;" xml:space="preserve">
<style type="text/css">
	.st0{fill:#E2D6BF;}
	.st1{fill:#FFF2D7;}
	.st2{fill:#2D2415;}
	.st3{fill:#262323;}
	.st4{fill:#FF7BAC;}
	.st5{fill:#9CC7AC;}
</style>
<g>
	<path class="st0" d="M123.7,198.3c-4.7,20.4,20.3,36.6,35.2,84.7c3.1,10.1,5,18.3,8.8,34.6c0,0,18.3,79.2,9.3,120.9
		c-0.7,3.3-1.6,6.6-3.4,10c-8.5,16.7-26.6,15.9-26.4,19.2c0.1,2.7,11.9,4.5,23.5,3.8c8.7-0.5,15.8-2.3,20.5-3.8
		c6.1-36.4,9.6-66.6,11.7-88.5c1.8-18.7,2.7-28.3,2.9-42.3c0.5-29.8-2.6-36.5-2.9-69.3c-0.4-37.7,3.6-38.2,0-50
		c-8.5-27.7-38.3-49.9-61.6-38.5C137,181.2,126.4,186.4,123.7,198.3"/>
	<path class="st0" d="M329.7,243.3c-0.7,6.5-6.6,70.3,35.7,110.4c12.5,11.9,25.6,18.2,35.5,21.7c3.5,24.1,7.2,41.5,10.3,53.9
		c1.7,7.1,2.2,12.9,0,19.2c-5.5,16-24.6,19.6-23.9,23.1c0.4,1.9,6.3,3.3,34.2,0c1-6.8,2.5-17.5,3.4-30.8c1.1-15.3,0.7-22.7,1.4-37.7
		c0.4-9,1.4-22.3,3.5-38.5c-11.6-5.7-28.3-16.7-32-34.9c-1.4-6.6-0.2-14.8,2.2-30.9c4.1-27.9,7.4-28.9,6.9-37.7
		c-0.7-10.7-39.8-69.9-62.8-57.7C333.4,209,331.4,227.1,329.7,243.3"/>
	<path class="st1" d="M127.2,132.9c-13.4,26.3-4.5,55,0,69.3c13.5,43.2,46.5,62.7,51.3,65.4c30.6,17.4,61,12.3,89,7.7
		c53.5-8.9,70.1-32.1,99.2-19.2c16.1,7.1,16.2,18.1,37.6,26.9c5.5,2.3,36.1,16.3,54.7,0c11.5-10.1,13.4-27.1,13.7-30.8
		c2.6-31.1-22.1-62.8-47.9-77c-35.6-19.5-83.1-11.1-96.8-8.6c-5.7,1-22,3.4-42.5-0.5c-5.3-1-11-2.9-18-6.2
		c-46.1-22.1-50-61.1-85.5-61.6C161,98,138.2,111.2,127.2,132.9"/>
	<path class="st1" d="M168.2,217.6c-4.7,20.4,20.3,36.6,35.2,84.7c3.1,10.1,5,18.3,8.8,34.6c0,0,18.3,79.2,9.3,120.9
		c-0.7,3.3-1.6,6.6-3.4,10c-8.5,16.7-26.6,15.9-26.4,19.2c0.2,2.7,11.9,4.5,23.5,3.8c8.7-0.5,15.8-2.3,20.5-3.8
		c6.1-36.4,9.6-66.6,11.7-88.5c1.8-18.7,2.7-28.3,2.9-42.3c0.5-29.8-2.6-36.5-2.9-69.3c-0.4-37.7,3.6-38.2,0-50
		c-8.5-27.7-38.3-49.9-61.6-38.5C181.5,200.4,170.9,205.7,168.2,217.6"/>
	<path class="st1" d="M383.8,259.9c0.5,7.2,6.2,72,54.7,100.1c14.1,8.2,27.7,10.8,37.6,11.5c11.6,28,17.4,50.5,20.5,65.4
		c2.1,9.9,3.3,18.3,0,26.9c-5.8,15.2-21.4,19.2-20.5,23.1c0.6,2.7,8.9,4,37.6,0c0.2-6.1,0.4-15.5,0-26.9
		c-0.9-23.7-3.7-36.8-6.8-65.4c-1-9.1-2.3-22.3-3.4-38.5c-12.4-2.9-30.7-9.9-37.6-26.9c-2.5-6.2-2.9-14.4-3.4-30.8
		c-1-28.3,2.1-30,0-38.5c-2.5-10.3-51.5-59.5-71.8-42.3C381.2,225.5,382.6,243.7,383.8,259.9"/>
	<path class="st1" d="M416.8,176.1c0-2.4,11.1,4.2,30,7c12.1,1.8,49.5,5.3,71.6-24.8c5.1-6.9,9.3-12.9,8.8-23.6
		c-1.1-23.9-24.4-47.6-22-52.4c1.8-3.5,15.5,5.2,25.6,18.8c13.5,18.1,16.4,39.2,16.8,42.5c3.8,30.8-12.9,46.7-19.9,53.2
		c-16.7,15.7-36.8,13.7-46.3,12.6C448.6,205.4,416.7,180.1,416.8,176.1"/>
	<path class="st1" d="M147.7,40.5c0,0-15.5,1.8-34.2,19.2c-3.5,3.3-6.6,6.9-6.6,6.9s-1.9,2.3-3.6,4.6c-6,8.1-12.5,38.1-20.3,54.7
		c-9.3,19.9-21.6,23.2-19,29c3.8,8.5,34.1,9.1,47-6c10-11.7,8.1-31.1,5.9-31.5c-3-0.6-14.8,31.8-13.7,65.4c1,30,19.6,59.7,30.8,57.7
		c10.3-1.9-2-39.8,17.1-65.4c26.5-35.7,87.4-14.5,92.4-34.6c1.5-6-3.6-9.2-15.9-25.2c-8-10.4-12.8-18.1-14.9-21
		c-23.4-32.9-21.9-35.7-30.8-42.3C177.1,48.5,164,38.7,147.7,40.5z"/>
	<path class="st2" d="M85.9,31.7c2.6-1.7,3.3-0.1,28.4,9.3c5.3,2,8.7,3.2,9.2,6.7c0.5,3.8-2.5,8.5-11.8,18.4
		c-15.9,17-23.8,25.6-28,24.2C72.7,86.7,73.5,39.8,85.9,31.7"/>
	<path class="st2" d="M193.8,26.7c-2.8-0.7-2.6,0.9-18.4,17.1c-3.3,3.4-5.5,5.5-4.3,8.8c1.3,3.5,5.9,6.6,17.7,12.4
		c20.4,9.9,30.6,14.9,33.3,12.4C229.3,70.7,207.3,29.9,193.8,26.7"/>
	<path class="st3" d="M72,157c-4.5-0.1-9.4-3.7-9-6c0.6-3.6,14.2-5.9,16.3-2.4c1.1,1.9-0.8,6.1-3.9,7.7C74,157,72.7,157,72,157z"/>
	<path class="st4" d="M102.9,160.1c-1.5,3.4-2.9,6.8-4.4,10.3c27,8,48.7,6.1,61.6,3.9c2.5-0.4,14.5-2.6,30.1-9
		c22.4-9.2,39.1-21.6,49.8-30.8c-3.8-5.1-7.6-10.3-11.4-15.4c-12.2,10.6-28.6,22.3-48.9,30.8c-19.3,8-35.4,10.2-42.4,10.9
		C128.4,161.6,116.6,161.9,102.9,160.1"/>
	<path class="st2" d="M112.6,90.4c0,3.2-2.3,5.8-5.1,5.8c-2.8,0-5.1-2.6-5.1-5.8c0-3.2,2.3-5.8,5.1-5.8
		C110.3,84.6,112.6,87.2,112.6,90.4"/>
	<path class="st2" d="M158.6,90.4c0,3.2-2.3,5.8-5.1,5.8c-2.8,0-5.1-2.6-5.1-5.8c0-3.2,2.3-5.8,5.1-5.8
		C156.3,84.6,158.6,87.2,158.6,90.4"/>
	<path class="st5" d="M169,124c-2.6-2-6.5-1.4-9,0c-2.5,1.4-3.7,3.5-4,4c-2.2,4.1-1.3,9.6,2,13c0.6,0.6,2.7,2.7,6,3
		c4.5,0.5,9.2-2.5,10-6c0.4-1.8-0.3-3.9-1-4c-0.7-0.1-1,1.7-3,3c-0.5,0.3-1.6,1-3,1c-1.4,0-2.5-0.6-3-1c-0.4-0.3-1.6-1.2-2-3
		c-0.4-2.1,0.8-3.7,1-4c1.1-1.4,2.6-1.9,3-2c2.6-0.7,4.4,0.7,5,0C171.5,127.3,170.6,125.2,169,124z"/>
	<path class="st5" d="M121,139c1.2-0.9,2.6-2.2,4-4c1.4-1.8,2.4-3.6,3-5c10,0,20,0,30,0v9C145.7,139,133.3,139,121,139z"/>
	<path class="st5" d="M52,143c2.6,2,6.5,1.4,9,0c2.5-1.4,3.7-3.5,4-4c2.2-4.1,1.3-9.6-2-13c-0.6-0.6-2.7-2.7-6-3
		c-4.5-0.5-9.2,2.5-10,6c-0.4,1.8,0.3,3.9,1,4c0.7,0.1,1-1.7,3-3c0.5-0.3,1.6-1,3-1c1.4,0,2.5,0.6,3,1c0.4,0.3,1.6,1.2,2,3
		c0.4,2.1-0.8,3.7-1,4c-1.1,1.4-2.6,1.9-3,2c-2.6,0.7-4.4-0.7-5,0C49.5,139.7,50.4,141.8,52,143z"/>
	<path class="st5" d="M82,128c-1.7,3-3.3,6-5,9c-4.7,0-9.3,0-14,0v-9C69.3,128,75.7,128,82,128z"/>
	<path class="st4" d="M102,147"/>
	<path class="st2" d="M130.2,120c0.6,0.2,0.5,8.1-4.3,15.2c-5.8,8.5-15.6,11.3-15.9,10.8c-0.2-0.4,6.4-2.9,12.3-10.1
		C128.7,128,129.7,119.8,130.2,120z"/>
</g>
</svg>
