<svg id="Layer_1" data-name="Layer 1" xmlns="http://www.w3.org/2000/svg" viewBox="0 0 501.34 464.05">
  <defs>
    <style>
      .cls-1 {
        fill: #e2d6bf;
      }

      .cls-2 {
        fill: #fff2d7;
      }

      .cls-3 {
        fill: #2d2415;
      }

      .cls-4 {
        fill: #262323;
      }

      .cls-5 {
        fill: #ff7bac;
      }

      .cls-6 {
        fill: #f2e7e7;
      }
    </style>
  </defs>
  <title>10AM</title>
  <g>
    <path class="cls-1" d="M123.68,198.35C119,218.78,143.94,235,158.89,283c3.14,10.09,5,18.27,8.8,34.64,0,0,18.26,79.19,9.25,120.85a40.23,40.23,0,0,1-3.38,10c-8.47,16.72-26.59,15.89-26.4,19.24.15,2.71,11.93,4.52,23.47,3.85a83,83,0,0,0,20.54-3.85c6.14-36.4,9.64-66.62,11.73-88.52,1.78-18.65,2.68-28.27,2.93-42.34.53-29.78-2.58-36.52-2.93-69.28-.41-37.75,3.61-38.24,0-50-8.49-27.73-38.34-49.94-61.61-38.49-4.27,2.1-14.88,7.32-17.6,19.24" transform="translate(-46.88 -26.95)"/>
    <path class="cls-1" d="M329.72,243.3c-.7,6.52-6.57,70.28,35.7,110.42a98.7,98.7,0,0,0,35.48,21.67c3.55,24.05,7.24,41.49,10.26,53.88,1.72,7.05,2.18,12.85,0,19.24-5.46,16-24.63,19.59-23.95,23.09.36,1.87,6.26,3.3,34.21,0,1-6.84,2.49-17.54,3.42-30.79,1.07-15.3.66-22.66,1.39-37.67.44-9,1.36-22.25,3.54-38.47-11.59-5.68-28.26-16.68-32-34.92-1.37-6.6-.21-14.8,2.16-30.93,4.1-27.92,7.43-28.91,6.89-37.7-.65-10.66-39.82-69.92-62.8-57.75-10.62,5.63-12.55,23.77-14.28,39.92" transform="translate(-46.88 -26.95)"/>
    <path class="cls-2" d="M127.2,132.92c-13.41,26.34-4.46,55,0,69.28,13.5,43.23,46.51,62.7,51.32,65.43,30.6,17.38,61,12.33,89,7.7,53.5-8.87,70.06-32.13,99.22-19.24,16.13,7.12,16.2,18.09,37.63,26.94,5.5,2.27,36.06,16.28,54.74,0,11.54-10.06,13.38-27.14,13.69-30.79,2.65-31.09-22.07-62.82-47.9-77-35.58-19.5-83.15-11.05-96.82-8.62a119.46,119.46,0,0,1-42.54-.54,72.65,72.65,0,0,1-18-6.23c-46.06-22.05-50-61.06-85.53-61.58-21-.31-43.7,12.95-54.74,34.64" transform="translate(-46.88 -26.95)"/>
    <path class="cls-2" d="M168.16,217.59c-4.67,20.43,20.26,36.63,35.21,84.67,3.14,10.09,5,18.27,8.8,34.64,0,0,18.26,79.19,9.25,120.85a40.18,40.18,0,0,1-3.38,10c-8.47,16.72-26.59,15.89-26.4,19.24.15,2.71,11.93,4.52,23.47,3.85A83,83,0,0,0,235.64,487c6.14-36.4,9.64-66.62,11.73-88.52,1.78-18.65,2.68-28.27,2.93-42.34.53-29.77-2.58-36.52-2.93-69.28-.41-37.75,3.61-38.24,0-50-8.49-27.73-38.34-49.94-61.61-38.49-4.27,2.1-14.88,7.32-17.6,19.24" transform="translate(-46.88 -26.95)"/>
    <path class="cls-2" d="M383.8,259.93c.53,7.18,6.19,72,54.74,100.07a88.11,88.11,0,0,0,37.63,11.55A365.33,365.33,0,0,1,496.7,437c2.06,9.89,3.32,18.32,0,26.94-5.85,15.21-21.4,19.24-20.53,23.09.61,2.68,8.86,4,37.64,0,.23-6.11.42-15.5,0-26.94-.88-23.75-3.69-36.84-6.84-65.43-1-9.09-2.32-22.31-3.42-38.49-12.37-2.94-30.67-9.94-37.63-26.94-2.52-6.15-2.86-14.45-3.42-30.79-1-28.28,2.1-30,0-38.49-2.55-10.29-51.53-59.47-71.85-42.34-9.39,7.91-8,26.12-6.84,42.34" transform="translate(-46.88 -26.95)"/>
    <path class="cls-3" d="M85.86,31.73c2.59-1.69,3.27-.09,28.43,9.34,5.3,2,8.73,3.21,9.24,6.74.55,3.8-2.55,8.47-11.77,18.38-15.86,17-23.79,25.55-28,24.18-11.1-3.64-10.26-50.58,2.1-58.65" transform="translate(-46.88 -26.95)"/>
    <path class="cls-2" d="M416.78,176.07c0-2.36,11.07,4.21,30,7,12.13,1.79,49.5,5.26,71.58-24.79,5.09-6.92,9.31-12.91,8.83-23.64-1.08-23.91-24.44-47.55-22-52.43,1.77-3.49,15.47,5.2,25.62,18.82,13.53,18.15,16.38,39.17,16.79,42.46,3.84,30.84-12.95,46.67-19.87,53.19-16.66,15.71-36.79,13.7-46.25,12.59-32.91-3.87-64.81-29.19-64.77-33.2" transform="translate(-46.88 -26.95)"/>
    <path class="cls-2" d="M147.73,40.55s-15.5,1.75-34.21,19.24a95.66,95.66,0,0,0-6.62,6.94S105,69,103.25,71.34C97.3,79.44,90.75,109.42,83,126c-9.29,19.87-21.59,23.23-19,29,3.82,8.51,34.1,9.1,47-6,10-11.69,8.11-31.06,5.94-31.48-3-.57-14.79,31.83-13.68,65.43,1,30,19.6,59.75,30.79,57.73,10.33-1.86-2-39.75,17.11-65.43,26.49-35.68,87.35-14.48,92.38-34.64,1.5-6-3.64-9.24-15.93-25.18-8-10.41-12.82-18.14-14.86-21-23.37-32.87-21.87-35.67-30.79-42.34C177.12,48.49,164,38.7,147.73,40.55Z" transform="translate(-46.88 -26.95)"/>
    <path class="cls-3" d="M193.46,27c-3-.49-3,1.23-21.4,19.87-3.88,3.93-6.42,6.41-5.38,9.81,1.12,3.66,5.86,6.63,18.28,11.87,21.35,9,32,13.52,35.19,10.59,8.36-7.75-12.26-49.82-26.69-52.14" transform="translate(-46.88 -26.95)"/>
    <path class="cls-4" d="M72,157c-4.53-.05-9.39-3.69-9-6,.61-3.58,14.19-5.9,16.26-2.41,1.11,1.88-.76,6.09-3.85,7.69A7,7,0,0,1,72,157Z" transform="translate(-46.88 -26.95)"/>
    <path class="cls-5" d="M102.94,160.05l-4.42,10.26c27,8,48.71,6.14,61.56,3.88a151.41,151.41,0,0,0,30.13-9A181.29,181.29,0,0,0,240,134.39L228.6,119a182.88,182.88,0,0,1-48.87,30.79,149.62,149.62,0,0,1-42.39,10.87,144.68,144.68,0,0,1-34.41-.61" transform="translate(-46.88 -26.95)"/>
    <path class="cls-3" d="M112.62,90.41c0,3.19-2.3,5.77-5.13,5.77s-5.13-2.58-5.13-5.77,2.3-5.77,5.13-5.77,5.13,2.58,5.13,5.77" transform="translate(-46.88 -26.95)"/>
    <path class="cls-3" d="M158.62,90.41c0,3.19-2.3,5.77-5.13,5.77s-5.13-2.58-5.13-5.77,2.3-5.77,5.13-5.77,5.13,2.58,5.13,5.77" transform="translate(-46.88 -26.95)"/>
    <path class="cls-6" d="M169,124c-2.58-2-6.48-1.35-9,0a10,10,0,0,0-4,4,11.44,11.44,0,0,0,2,13,10,10,0,0,0,6,3c4.46.45,9.24-2.46,10-6,.4-1.85-.29-3.89-1-4s-1,1.67-3,3a5.39,5.39,0,0,1-3,1,5.12,5.12,0,0,1-3-1,5,5,0,0,1-2-3,5.1,5.1,0,0,1,1-4,5.67,5.67,0,0,1,3-2c2.61-.74,4.43.72,5,0S170.57,125.21,169,124Z" transform="translate(-46.88 -26.95)"/>
    <path class="cls-6" d="M121,139a23.51,23.51,0,0,0,7-9h30v9Z" transform="translate(-46.88 -26.95)"/>
    <path class="cls-6" d="M52,143c2.58,2,6.48,1.35,9,0a10,10,0,0,0,4-4,11.44,11.44,0,0,0-2-13,10,10,0,0,0-6-3c-4.46-.45-9.24,2.46-10,6-.4,1.85.29,3.89,1,4s1-1.67,3-3a5.39,5.39,0,0,1,3-1,5.12,5.12,0,0,1,3,1,5,5,0,0,1,2,3,5.1,5.1,0,0,1-1,4,5.67,5.67,0,0,1-3,2c-2.61.74-4.43-.72-5,0S50.43,141.79,52,143Z" transform="translate(-46.88 -26.95)"/>
    <path class="cls-6" d="M82,128l-5,9H63v-9Z" transform="translate(-46.88 -26.95)"/>
    <path class="cls-5" d="M102,147" transform="translate(-46.88 -26.95)"/>
    <path class="cls-3" d="M130.23,120c.55.16.47,8.15-4.34,15.18-5.83,8.54-15.64,11.28-15.9,10.84s6.44-2.86,12.28-10.12C128.69,128,129.66,119.84,130.23,120Z" transform="translate(-46.88 -26.95)"/>
  </g>
</svg>
