<?xml version="1.0" encoding="utf-8"?>
<!-- Generator: Adobe Illustrator 21.0.2, SVG Export Plug-In . SVG Version: 6.00 Build 0)  -->
<svg version="1.1" id="Layer_1" xmlns="http://www.w3.org/2000/svg" xmlns:xlink="http://www.w3.org/1999/xlink" x="0px" y="0px"
	 viewBox="0 0 600 520" style="enable-background:new 0 0 600 520;" xml:space="preserve">
<style type="text/css">
	.st0{fill:#E2D6BF;}
	.st1{fill:#FFF2D7;}
	.st2{fill:#2D2415;}
	.st3{fill:#262323;}
	.st4{fill:#FF7BAC;}
	.st5{fill:#F7E7ED;}
	.st6{fill:none;stroke:#FF7BAC;stroke-width:2;stroke-linecap:round;stroke-miterlimit:10;}
</style>
<g>
	<path class="st0" d="M380,306c-21.3-0.3-33.6-0.5-46,7c-27,16.3-38.4,59.7-24,82c10.2,15.8,30.8,16.9,30,24
		c-1.1,10.2-44.2,12.1-44,16c0.1,2.2,13.9,5.1,44,5c102.4-0.4,117.8-6.2,126-17c6.4-8.3,7.8-16.8,9-24c5.5-32.5-13.4-67.4-41-83
		C417.3,306.5,401,306.3,380,306z"/>
	<path class="st0" d="M181.7,160.3c-4.7,20.4,20.3,36.6,35.2,84.7c3.1,10.1,5,18.3,8.8,34.6c0,0,18.3,79.2,9.3,120.9
		c-0.7,3.3-1.6,6.6-3.4,10c-8.5,16.7-26.6,15.9-26.4,19.2c0.1,2.7,11.9,4.5,23.5,3.8c8.7-0.5,15.8-2.3,20.5-3.8
		c6.1-36.4,9.6-66.6,11.7-88.5c1.8-18.7,2.7-28.3,2.9-42.3c0.5-29.8-2.6-36.5-2.9-69.3c-0.4-37.7,3.6-38.2,0-50
		c-8.5-27.7-38.3-49.9-61.6-38.5C195,143.2,184.4,148.4,181.7,160.3"/>
	<path class="st1" d="M226.2,179.6c-4.7,20.4,20.3,36.6,35.2,84.7c3.1,10.1,5,18.3,8.8,34.6c0,0,18.3,79.2,9.3,120.9
		c-0.7,3.3-1.6,6.6-3.4,10c-8.5,16.7-26.6,15.9-26.4,19.2c0.2,2.7,11.9,4.5,23.5,3.8c8.7-0.5,15.8-2.3,20.5-3.8
		c6.1-36.4,9.6-66.6,11.7-88.5c1.8-18.7,2.7-28.3,2.9-42.3c0.5-29.8-2.6-36.5-2.9-69.3c-0.4-37.7,3.6-38.2,0-50
		c-8.5-27.7-38.3-49.9-61.6-38.5C239.5,162.4,228.9,167.7,226.2,179.6"/>
	<path class="st1" d="M310.7,160.7c6.8,2.9,12.3,5.8,17.1,8.8c26.5,16.5,46.3,32.4,55.9,41.5c57.6,54.1,99.7,93.7,104.3,150.9
		c0.9,10.9,4.3,54-22,72c-21,14.3-49.3,4.6-54,3c-31.8-10.9-46.4-41.1-50.5-49.4c-13.3-27.5-4.1-39.4-18.5-56.6
		c-12.9-15.4-26.5-15.4-52-26c-25.4-10.5-77.8-30.6-86-69c-6.9-32.1,8.7-72.6,38-85C265.7,141.4,289.6,151.7,310.7,160.7z"/>
	<g>
		<path class="st2" d="M165.9,52.7c2.6-1.7,3.3-0.1,28.4,9.3c5.3,2,8.7,3.2,9.2,6.7c0.5,3.8-2.5,8.5-11.8,18.4
			c-15.9,17-23.8,25.6-28,24.2C152.7,107.7,153.5,60.8,165.9,52.7"/>
		<path class="st1" d="M438.8,350.1c0-2.4,11.1,4.2,30,7c12.1,1.8,49.5,5.3,71.6-24.8c5.1-6.9,9.3-12.9,8.8-23.6
			c-1.1-23.9-24.4-47.6-22-52.4c1.8-3.5,15.5,5.2,25.6,18.8c13.5,18.1,16.4,39.2,16.8,42.5c3.8,30.8-12.9,46.7-19.9,53.2
			c-16.7,15.7-36.8,13.7-46.3,12.6C470.6,379.4,438.7,354.1,438.8,350.1"/>
		<path class="st1" d="M227.7,61.5c0,0-15.5,1.8-34.2,19.2c-3.5,3.3-6.6,6.9-6.6,6.9s-1.9,2.3-3.6,4.6c-6,8.1-12.5,38.1-20.3,54.7
			c-9.3,19.9-21.6,23.2-19,29c3.8,8.5,34.1,9.1,47-6c10-11.7,8.1-31.1,5.9-31.5c-3-0.6-14.8,31.8-13.7,65.4
			c1,30,19.6,59.7,30.8,57.7c10.3-1.9-4.2-41.4,17.1-65.4c29.8-33.7,104.6-9.9,107.9-24.3c1.3-5.8-11-9.6-31.4-35.6
			c-3.8-4.8-7.3-10.3-14.9-21c-23.4-32.9-21.9-35.7-30.8-42.3C257.1,69.5,244,59.7,227.7,61.5z"/>
		<path class="st2" d="M262.8,47.1c-3.2-0.6-3,1.2-21.6,20c-3.9,4-6.5,6.5-5.2,10.1c1.3,3.9,6.4,7.2,19.5,13.2
			c22.6,10.3,34,15.4,37.2,12.5C301.2,95.1,278,50.1,262.8,47.1"/>
		<path class="st3" d="M152,178c-4.5-0.1-9.4-3.7-9-6c0.6-3.6,14.2-5.9,16.3-2.4c1.1,1.9-0.8,6.1-3.9,7.7C154,178,152.7,178,152,178
			z"/>
		<path class="st2" d="M192.6,111.4c0,3.2-2.3,5.8-5.1,5.8c-2.8,0-5.1-2.6-5.1-5.8c0-3.2,2.3-5.8,5.1-5.8
			C190.3,105.6,192.6,108.2,192.6,111.4"/>
		<path class="st2" d="M238.6,111.4c0,3.2-2.3,5.8-5.1,5.8c-2.8,0-5.1-2.6-5.1-5.8c0-3.2,2.3-5.8,5.1-5.8
			C236.3,105.6,238.6,108.2,238.6,111.4"/>
		<path class="st4" d="M182.9,181.1c0,1.6,0.1,3.3,0.1,4.9c0,2.4,0,4.7,0,7c18,2.4,42.4,4.8,57.1,2.2c0.6-0.1,1.1-0.2,1.1-0.2
			c4.1-0.8,15.4-3.1,29-8.8c22.4-9.3,39.5-22.8,50.8-33.2c-1.7-1.9-3.3-3.9-5-6c-2.5-3-4.8-6-7-9c-10.9,10.5-27.2,23.4-49.3,32.8
			c-21,8.9-38.1,10.8-41.7,11.2C203.7,183.5,191.6,182.4,182.9,181.1z"/>
		<path class="st4" d="M182,168"/>
		<path class="st2" d="M210.2,141c0.6,0.2,0.5,8.1-4.3,15.2c-5.8,8.5-15.6,11.3-15.9,10.8c-0.2-0.4,6.4-2.9,12.3-10.1
			C208.7,149,209.7,140.8,210.2,141z"/>
	</g>
	<path class="st1" d="M415,312c-23.9-6.3-43.6,5.5-46,7c-27,16.3-38.4,59.7-24,82c10.2,15.8,30.8,16.9,30,24
		c-1.1,10.2-44.2,12.1-44,16c0.1,2.9,22.9,4,44,5c21.9,1,32.9,0.7,54,0c17.9-0.6,19.5-1.2,21-2c19.8-10.4,21.9-52.1,11-82
		C457.2,351.6,445.8,320.2,415,312z"/>
	<g>
		<polygon class="st5" points="40,434 80,465 193,465 156,434 		"/>
		<path class="st6" d="M60.5,437.5c9,7.4,17.9,14.8,26.9,22.2"/>
		<path class="st6" d="M71.5,437.5c9,7.4,17.9,14.8,26.9,22.2"/>
		<path class="st6" d="M147.5,437.5c9,7.4,17.9,14.8,26.9,22.2"/>
		<path class="st6" d="M136.5,437.5c9,7.4,17.9,14.8,26.9,22.2"/>
		<path class="st6" d="M124.5,437.5c9,7.4,17.9,14.8,26.9,22.2"/>
		<path class="st6" d="M112.5,437.5c9,7.4,17.9,14.8,26.9,22.2"/>
		<path class="st6" d="M100.5,437.5c9,7.4,17.9,14.8,26.9,22.2"/>
		<path class="st6" d="M87.5,437.5c9,7.4,17.9,14.8,26.9,22.2"/>
	</g>
</g>
</svg>
