<?xml version="1.0" encoding="utf-8"?>
<!-- Generator: Adobe Illustrator 21.0.2, SVG Export Plug-In . SVG Version: 6.00 Build 0)  -->
<svg version="1.1" id="Layer_1" xmlns="http://www.w3.org/2000/svg" xmlns:xlink="http://www.w3.org/1999/xlink" x="0px" y="0px"
	 viewBox="0 0 588 307" style="enable-background:new 0 0 588 307;" xml:space="preserve">
<style type="text/css">
	.st0{fill:#F37566;}
	.st1{fill:#D6332B;}
	.st2{font-family:'HelveticaNeue-Bold';}
	.st3{font-size:80.7608px;}
</style>
<path class="st0" d="M511.3,157.9c24.5-6.4,42.5-28.7,42.5-55.1c0-31.5-25.5-57-57-57c-26.8,0-49.2,18.5-55.4,43.4H150.7
	c-6.1-24.9-28.6-43.4-55.4-43.4c-31.5,0-57,25.5-57,57c0,26.5,18.1,48.7,42.5,55.1c-24.5,6.4-42.5,28.7-42.5,55.1
	c0,31.5,25.5,57,57,57c31.1,0,56.3-24.9,57-55.8h287.6c0.7,30.9,25.9,55.8,57,55.8c31.5,0,57-25.5,57-57
	C553.9,186.5,535.8,164.3,511.3,157.9z"/>
<text transform="matrix(1 0 0 1 139.0347 182.5864)" class="st1 st2 st3">YUMMY</text>
</svg>
