<svg id="Layer_1" data-name="Layer 1" xmlns="http://www.w3.org/2000/svg" viewBox="0 0 522.77 437.25">
  <defs>
    <style>
      .cls-1 {
        fill: #9cc7ac;
      }

      .cls-2 {
        fill: #f37566;
      }

      .cls-3 {
        fill: #f29f9c;
      }

      .cls-4 {
        fill: #bddfcf;
      }
    </style>
  </defs>
  <title>6PM</title>
  <g>
    <path class="cls-1" d="M149.74,199.33H387.66a0,0,0,0,1,0,0V413.76a23.5,23.5,0,0,1-23.5,23.5H173.24a23.5,23.5,0,0,1-23.5-23.5V199.33A0,0,0,0,1,149.74,199.33Z"/>
    <rect class="cls-1" x="165" y="69.01" width="32.28" height="118.36" rx="3.69" ry="3.69"/>
    <path class="cls-2" d="M299.89,82.14,173.11,238.32a9.07,9.07,0,0,0,7,14.79H433.71a9.07,9.07,0,0,0,7-14.79L314,82.14A9.07,9.07,0,0,0,299.89,82.14Z" transform="translate(-38.23 -41.51)"/>
    <path class="cls-3" d="M53.49,117.25s-5.43-1.18-9.53.73a9.26,9.26,0,0,0-5,6.54c-1.06,6.29,6.58,11.75,9.26,13.67,3.78,2.7,5.57,2.74,16.23,6.29,14.92,5,18.15,7.14,21.63,5.19,3.31-1.85,4.42-6.07,5.24-12C94.14,117.33,96.82,97.5,85,90.86c-8.36-4.7-23.18-2.31-29.54,7.74C50.57,106.39,52.93,115.29,53.49,117.25Z" transform="translate(-38.23 -41.51)"/>
    <path class="cls-3" d="M499.17,77.42s-2.48-7.86-8-11.73a13.74,13.74,0,0,0-12.1-1.58c-8.89,3.27-10.28,17.14-10.77,22-1,9.47,1.12,16.56,3.88,25.54,4,13,6,19.57,11.13,21.33,5.8,2,12.5-3.51,25.9-14.53,14.72-12.11,17.7-19,18.8-22,1.61-4.36,4-10.75.79-16.89-2.69-5.2-8.77-9.09-14.55-8.77C506.58,71.25,499.17,77.42,499.17,77.42Z" transform="translate(-38.23 -41.51)"/>
    <path class="cls-3" d="M55.39,247s-8.19.88-13.08,5.49a13.74,13.74,0,0,0-3.94,11.54c1.45,9.36,14.76,13.47,19.45,14.91,9.1,2.81,16.45,2.18,25.8,1.25,13.58-1.35,20.37-2,23.11-6.69,3.11-5.29-1-12.95-9.12-28.26-9-16.83-15.11-21.11-17.82-22.78-4-2.44-9.76-6-16.4-4.12-5.63,1.61-10.64,6.8-11.48,12.52C50.8,238.54,55.39,247,55.39,247Z" transform="translate(-38.23 -41.51)"/>
    <path class="cls-3" d="M527.24,239.65c7.75-4.77,10.54-14.11,7.21-21-3.62-7.5-13.05-9.06-19.17-7.7-7.87,1.75-11.81,8.68-14.35,13.15-5.53,9.74-4.92,19.31-4.45,26.68.66,10.3,1.15,18,6.84,22.34,4.94,3.73,10.94,2.72,22.94.7,16.22-2.74,24.37-8.93,26.79-10.89,6.46-5.24,7.42-9,7.66-10.13,1.2-5.64-1.57-11.29-4.78-14.35C549.7,232.51,537.69,232.48,527.24,239.65Z" transform="translate(-38.23 -41.51)"/>
    <path class="cls-3" d="M167,64.21s-3-4.18-6.95-5.42c-3.55-1.11-6.54.8-7.46,1.37-4.87,3-6.23,9.73-5.6,14.5.72,5.52,4.15,8.8,10.57,14.94,5.65,5.4,8.47,8.1,12.14,7.78,4-.35,6.39-3.92,11.05-10.8,3.64-5.36,6.66-10,6.94-16.57.12-2.88.3-7.12-2.75-10.14a10.87,10.87,0,0,0-10.27-2.42A12,12,0,0,0,167,64.21Z" transform="translate(-38.23 -41.51)"/>
    <path class="cls-3" d="M396.6,48.67s-3-4.18-6.95-5.42c-2.84-.89-5.26.39-7.46,1.37-2.63,1.17-8.35,3.72-10.38,9.71-2.86,8.43,4.16,16.08,4.78,16.74,2.25,2.38,5.09,3.58,10.76,6,7.93,3.35,11.89,5,15.54,3.59,2.29-.9,4-3.82,7.47-9.6,4.48-7.58,6.73-11.48,6.94-16.57.12-2.88.3-7.12-2.75-10.14a10.87,10.87,0,0,0-10.27-2.42A12,12,0,0,0,396.6,48.67Z" transform="translate(-38.23 -41.51)"/>
    <rect class="cls-4" x="313.25" y="238.78" width="55" height="71.74" rx="6.53" ry="6.53"/>
    <rect class="cls-4" x="241.51" y="238.78" width="55" height="71.74" rx="6.53" ry="6.53"/>
    <rect class="cls-4" x="169.78" y="238.78" width="55" height="71.74" rx="6.53" ry="6.53"/>
    <rect class="cls-4" x="313.25" y="327.26" width="55" height="81.3" rx="6.95" ry="6.95"/>
    <path class="cls-4" d="M249.6,327.26h38.83a8.08,8.08,0,0,1,8.08,8.08V437.25a0,0,0,0,1,0,0h-55a0,0,0,0,1,0,0V335.34A8.08,8.08,0,0,1,249.6,327.26Z"/>
    <rect class="cls-4" x="169.78" y="327.26" width="55" height="81.3" rx="6.95" ry="6.95"/>
    <rect class="cls-1" x="194.89" y="224.44" width="5.98" height="200.86"/>
    <rect class="cls-1" x="338.36" y="224.44" width="5.98" height="200.86"/>
    <rect class="cls-1" x="266.62" y="224.44" width="5.98" height="93.26"/>
    <rect class="cls-1" x="304.7" y="210.79" width="6.3" height="211.62" transform="translate(-46.99 582.94) rotate(-90)"/>
    <rect class="cls-1" x="232.52" y="376.54" width="5.98" height="66.95" transform="translate(-212.74 604.02) rotate(-90)"/>
    <rect class="cls-1" x="379.58" y="376.54" width="5.98" height="66.95" transform="translate(-65.68 751.08) rotate(-90)"/>
    <circle class="cls-1" cx="287.55" cy="384.05" r="4.18"/>
  </g>
</svg>
