<?xml version="1.0" encoding="utf-8"?>
<!-- Generator: Adobe Illustrator 21.0.2, SVG Export Plug-In . SVG Version: 6.00 Build 0)  -->
<svg version="1.1" id="Layer_1" xmlns="http://www.w3.org/2000/svg" xmlns:xlink="http://www.w3.org/1999/xlink" x="0px" y="0px"
	 viewBox="0 0 600 520" style="enable-background:new 0 0 600 520;" xml:space="preserve">
<style type="text/css">
	.st0{fill:#9CC7AC;}
	.st1{fill:#F37566;}
	.st2{fill:#F29F9C;}
	.st3{fill:#BDDFCF;}
</style>
<g>
	<path class="st0" d="M417.9,229.8H180v214.4c0,13,10.5,23.5,23.5,23.5h190.9c13,0,23.5-10.5,23.5-23.5V229.8z"/>
	<path class="st0" d="M223.8,217.9h-24.9c-2,0-3.7-1.7-3.7-3.7v-111c0-2,1.7-3.7,3.7-3.7h24.9c2,0,3.7,1.7,3.7,3.7v111
		C227.5,216.2,225.9,217.9,223.8,217.9z"/>
	<path class="st1" d="M291.9,71.1L165.1,227.3c-4.8,5.9-0.6,14.8,7,14.8h253.6c7.6,0,11.9-8.9,7-14.8L306,71.1
		C302.3,66.7,295.5,66.7,291.9,71.1z"/>
	<path class="st2" d="M45.5,106.2c0,0-5.4-1.2-9.5,0.7c-2.6,1.2-4.5,3.9-5,6.5c-1.1,6.3,6.6,11.8,9.3,13.7c3.8,2.7,5.6,2.7,16.2,6.3
		c14.9,5,18.1,7.1,21.6,5.2c3.3-1.9,4.4-6.1,5.2-12c2.8-20.3,5.5-40.1-6.3-46.8c-8.4-4.7-23.2-2.3-29.5,7.7
		C42.6,95.4,44.9,104.3,45.5,106.2z"/>
	<path class="st2" d="M491.2,66.4c0,0-2.5-7.9-8-11.7c-3.5-2.4-8.4-2.9-12.1-1.6c-8.9,3.3-10.3,17.1-10.8,22
		c-1,9.5,1.1,16.6,3.9,25.5c4,13,6,19.6,11.1,21.3c5.8,2,12.5-3.5,25.9-14.5c14.7-12.1,17.7-19,18.8-22c1.6-4.4,4-10.8,0.8-16.9
		c-2.7-5.2-8.8-9.1-14.5-8.8C498.6,60.2,491.2,66.4,491.2,66.4z"/>
	<path class="st2" d="M47.4,236c0,0-8.2,0.9-13.1,5.5c-3.1,2.9-4.5,7.6-3.9,11.5c1.5,9.4,14.8,13.5,19.4,14.9
		c9.1,2.8,16.5,2.2,25.8,1.3c13.6-1.3,20.4-2,23.1-6.7c3.1-5.3-1-12.9-9.1-28.3c-9-16.8-15.1-21.1-17.8-22.8c-4-2.4-9.8-6-16.4-4.1
		c-5.6,1.6-10.6,6.8-11.5,12.5C42.8,227.5,47.4,236,47.4,236z"/>
	<path class="st2" d="M519.2,228.6c7.7-4.8,10.5-14.1,7.2-21c-3.6-7.5-13.1-9.1-19.2-7.7c-7.9,1.8-11.8,8.7-14.3,13.2
		c-5.5,9.7-4.9,19.3-4.5,26.7c0.7,10.3,1.1,18,6.8,22.3c4.9,3.7,10.9,2.7,22.9,0.7c16.2-2.7,24.4-8.9,26.8-10.9
		c6.5-5.2,7.4-9,7.7-10.1c1.2-5.6-1.6-11.3-4.8-14.3C541.7,221.5,529.7,221.5,519.2,228.6z"/>
	<path class="st2" d="M159,53.2c0,0-3-4.2-6.9-5.4c-3.6-1.1-6.5,0.8-7.5,1.4c-4.9,3-6.2,9.7-5.6,14.5c0.7,5.5,4.2,8.8,10.6,14.9
		c5.6,5.4,8.5,8.1,12.1,7.8c4-0.3,6.4-3.9,11.1-10.8c3.6-5.4,6.7-10,6.9-16.6c0.1-2.9,0.3-7.1-2.7-10.1c-2.7-2.7-6.9-3.3-10.3-2.4
		C161.4,47.8,159.3,52.6,159,53.2z"/>
	<path class="st2" d="M388.6,37.7c0,0-3-4.2-6.9-5.4c-2.8-0.9-5.3,0.4-7.5,1.4c-2.6,1.2-8.4,3.7-10.4,9.7
		c-2.9,8.4,4.2,16.1,4.8,16.7c2.3,2.4,5.1,3.6,10.8,6c7.9,3.4,11.9,5,15.5,3.6c2.3-0.9,4-3.8,7.5-9.6c4.5-7.6,6.7-11.5,6.9-16.6
		c0.1-2.9,0.3-7.1-2.7-10.1c-2.7-2.7-6.9-3.3-10.3-2.4C390.9,32.3,388.8,37.1,388.6,37.7z"/>
	<path class="st3" d="M392,341H350c-3.6,0-6.5-2.9-6.5-6.5v-58.7c0-3.6,2.9-6.5,6.5-6.5H392c3.6,0,6.5,2.9,6.5,6.5v58.7
		C398.5,338.1,395.6,341,392,341z"/>
	<path class="st3" d="M320.2,341h-41.9c-3.6,0-6.5-2.9-6.5-6.5v-58.7c0-3.6,2.9-6.5,6.5-6.5h41.9c3.6,0,6.5,2.9,6.5,6.5v58.7
		C326.7,338.1,323.8,341,320.2,341z"/>
	<path class="st3" d="M248.5,341h-41.9c-3.6,0-6.5-2.9-6.5-6.5v-58.7c0-3.6,2.9-6.5,6.5-6.5h41.9c3.6,0,6.5,2.9,6.5,6.5v58.7
		C255,338.1,252.1,341,248.5,341z"/>
	<path class="st3" d="M391.5,439.1h-41.1c-3.8,0-6.9-3.1-6.9-6.9v-67.4c0-3.8,3.1-6.9,6.9-6.9h41.1c3.8,0,6.9,3.1,6.9,6.9v67.4
		C398.5,436,395.4,439.1,391.5,439.1z"/>
	<path class="st3" d="M326.7,467.8h-55V365.9c0-4.5,3.6-8.1,8.1-8.1h38.8c4.5,0,8.1,3.6,8.1,8.1V467.8z"/>
	<path class="st3" d="M248.1,439.1H207c-3.8,0-6.9-3.1-6.9-6.9v-67.4c0-3.8,3.1-6.9,6.9-6.9h41.1c3.8,0,6.9,3.1,6.9,6.9v67.4
		C255,436,251.9,439.1,248.1,439.1z"/>
	<rect x="225.1" y="255" class="st0" width="6" height="200.9"/>
	<rect x="368.6" y="255" class="st0" width="6" height="200.9"/>
	<rect x="296.9" y="255" class="st0" width="6" height="93.3"/>
	
		<rect x="296.7" y="199.8" transform="matrix(6.123234e-17 -1 1 6.123234e-17 -5.7572 605.4497)" class="st0" width="6.3" height="211.6"/>
	
		<rect x="224.5" y="365.5" transform="matrix(6.123234e-17 -1 1 6.123234e-17 -171.5082 626.5328)" class="st0" width="6" height="67"/>
	
		<rect x="371.6" y="365.5" transform="matrix(6.123234e-17 -1 1 6.123234e-17 -24.4491 773.592)" class="st0" width="6" height="67"/>
	<circle class="st0" cx="317.8" cy="414.6" r="4.2"/>
</g>
</svg>
