<svg id="Layer_1" data-name="Layer 1" xmlns="http://www.w3.org/2000/svg" viewBox="0 0 485.66 298.13">
  <defs>
    <style>
      .cls-1 {
        fill: #5b2c14;
      }

      .cls-2 {
        fill: #dd685f;
      }

      .cls-3 {
        fill: #dd473c;
      }
    </style>
  </defs>
  <title>7AM</title>
  <path class="cls-1" d="M246.2,329.22C225,314.57,203,287.32,209.72,272.47c2.73-6.07,11.22-12.22,18.65-11.35,8.14,1,12.81,10.07,14.59,8.92s-3.63-9.27-4.86-21.89c-.67-6.91-1.44-14.81,3.24-19.46,5.86-5.81,18.31-4.58,25.94.81,8.78,6.2,9.26,16.53,13,16.21s2.6-10.21,9.73-19.46c5.22-6.78,15.8-14.45,26.75-12.16,11.18,2.33,16.64,13.76,17,14.59,4.48,9.74.55,17.78,4.05,19.46,3.87,1.85,8.45-8,20.27-12.16,9-3.15,22.77-3.26,29.18,4.86,4.59,5.81,4.35,14.51,2.43,20.27-2.81,8.43-9.38,11.13-8.11,14.59,1.53,4.16,11.23.72,17.84,6.49,6.13,5.35,6.25,15.7,4.86,21.89-.93,4.15-4.36,14.61-24.32,25.13-21.53,11.35-84.14,34.28-133.76,0" transform="translate(-57.12 -110.92)"/>
  <path class="cls-2" d="M195.52,293.22s43.08,3.75,107.76,3.22c67.58-.56,114.2-6.43,114.2-6.43L440,396.15A819.88,819.88,0,0,1,301.68,409a819.47,819.47,0,0,1-121.17-8l15-107.76" transform="translate(-57.12 -110.92)"/>
  <path class="cls-3" d="M90.53,224.44c-4.64-7.64-12.92-11.46-20.31-9.77-6.94,1.59-12.23,7.82-13,13.9-1.58,12.57,16,25.86,32.23,28.31,3,.46,14.76,2.23,24.37-5.07,9.91-7.53,11-19.72,11.84-29.6.59-6.72,2.09-23.93-6.12-27.75-5.3-2.47-12.77,1.53-16.91,5.23-9.29,8.33-12.1,24.74-12.1,24.74" transform="translate(-57.12 -110.92)"/>
  <path class="cls-3" d="M280.31,139.71c-1.36-14.2-10.6-25.44-22.4-28.15-11.07-2.54-23,2.74-28.32,10.95-11,17,5.06,48.3,26.63,63.08,4,2.76,19.65,13.46,38.53,9.65,19.47-3.94,29.47-20.71,37.57-34.3,5.51-9.25,19.63-32.93,10.49-44.12-5.9-7.23-19.42-6.68-27.93-4.23-19.14,5.51-34.58,27.14-34.58,27.14" transform="translate(-57.12 -110.92)"/>
  <path class="cls-3" d="M501.57,194.06c3.68-8.14,2.16-17.13-3.41-22.28-5.23-4.83-13.36-5.67-18.81-2.87-11.27,5.8-12.29,27.84-5.17,42.59,1.33,2.75,6.49,13.44,17.95,17.25,11.81,3.92,22.47-2.08,31.11-6.95,5.88-3.31,20.93-11.79,19.45-20.72-1-5.77-8.47-9.68-13.87-11-12.12-3-27.25,4-27.25,4" transform="translate(-57.12 -110.92)"/>
</svg>
