<svg id="Layer_1" data-name="Layer 1" xmlns="http://www.w3.org/2000/svg" viewBox="0 0 504.04 355.8">
  <defs>
    <style>
      .cls-1 {
        fill: #f37566;
      }

      .cls-2 {
        fill: #9cc7ac;
      }

      .cls-3 {
        fill: #fff2d7;
      }

      .cls-4 {
        fill: #2d2415;
      }

      .cls-5 {
        fill: #262323;
      }

      .cls-6 {
        fill: #ff7bac;
      }
    </style>
  </defs>
  <title>8AM</title>
  <path class="cls-1" d="M57.9,410.35q0-17.44.06-35,.77-133.77,9.45-261c-.71-10.19,0-24.75,9.06-36C88.37,63.62,108.69,62,197.12,70.75,285.9,79.51,307.7,85.33,331.44,99.82a178.9,178.9,0,0,1,38.95,32.07c94.52,102.59,149.71,170.26,149.71,170.26,4.73,7.12,17.41,15.75,26.55,32.56,11.26,20.69,12.87,43.89,14.29,59.51a243.34,243.34,0,0,1,1,27q-147-2.17-294-5.5Q162.9,413.33,57.9,410.35Z" transform="translate(-57.89 -65.42)"/>
  <path class="cls-2" d="M101.11,291.43c.15-8.76.31-22.76.07-40-.47-33.2-2.44-81.35-2.84-91-2-47.68-2.83-59.38,6.11-67,8.11-6.9,17.57-4.74,43-1.93,51.68,5.72,111.42,7.64,152,17.26a92.19,92.19,0,0,1,20,7,93.59,93.59,0,0,1,23,16C390.15,176,412.82,207.63,457.16,260c14,16.51,14.77,22.82,14.32,25.56a14.77,14.77,0,0,1-.37,1.46c-5.1,15.91-166.42,5.65-203,3.65A1434,1434,0,0,0,101.11,291.43Z" transform="translate(-57.89 -65.42)"/>
  <path class="cls-3" d="M211,154.69s13,1.49,28.65,16.18a80.2,80.2,0,0,1,5.54,5.83c1.23,1.46,2.18,2.72,3,3.86,17.06,22.73,61.61,11.55,63.06,19.46.91,5-15.41,16.29-34.45,19.3-22.46,3.55-34.68-6.13-40.15-.07-9.6,10.63,21.54,47.94,13.4,55.43-5.35,4.93-24.44-6-28-8a85.46,85.46,0,0,1-15-11c-25.61-22.08-73-5.91-76.57-17.18-.52-1.63.27-2.63,13.39-21.09,4.17-5.86,8.31-11.73,12.48-17.58,19.63-27.52,18.39-29.87,25.87-35.44C186.39,161.3,197.38,153.12,211,154.69Z" transform="translate(-57.89 -65.42)"/>
  <path class="cls-4" d="M209.47,154.87c-.63-2.51-2-1.91-22.82-10.4-4.39-1.79-7.2-3-9.52-1.1-2.5,2-3.25,6.67-3.2,18,.09,19.51.13,29.26,3.5,30.8,8.9,4.07,35.07-25.33,32-37.32" transform="translate(-57.89 -65.42)"/>
  <path class="cls-5" d="M311.33,203.25c1.62-1.22,1.49-5.13,0-6.45s-7.64.22-5.74,0c0,0,.46,5,2.86,6.46a2.65,2.65,0,0,0,2.87,0" transform="translate(-57.89 -65.42)"/>
  <path class="cls-4" d="M228.31,173.64c.13-.47-2.81-2.39-6-2-2.94.35-5.22,2.55-5,3s2.18-.72,6-1C226.53,173.41,228.22,174,228.31,173.64Z" transform="translate(-57.89 -65.42)"/>
  <rect class="cls-2" x="102.01" y="339.48" width="62" height="22" rx="11" ry="11" transform="translate(-57.29 -65.64) rotate(0.1)"/>
  <rect class="cls-1" x="333.23" y="112.84" width="19" height="210" transform="translate(-67.59 -49.35) rotate(-2.65)"/>
  <path class="cls-3" d="M234.24,213.65c-1.44,4.56,8.28,11.31,13,14,14,8,29.62,6.9,30,5.05s-15.59-2.21-23-14c-2.1-3.36-2.66-6.3-6-8C243.22,208.1,235.37,210.1,234.24,213.65Z" transform="translate(-57.89 -65.42)"/>
  <path class="cls-3" d="M182.28,203c-29.75.39-33.14,33.07-71.78,51.49a71.57,71.57,0,0,1-9.24,3.71c.12,14.12,0,25.62-.15,33.2,22-1.37,44.95-2.29,68.81-2.64,26.51-.39,51.94,0,76.19.89.33-7.78.48-34-18-57.53C221.83,224.13,203.65,202.75,182.28,203Z" transform="translate(-57.89 -65.42)"/>
  <path class="cls-6" d="M236.72,228l2.86,7a82.29,82.29,0,0,1-39.93,2.59,94.22,94.22,0,0,1-19.53-6.21,116.86,116.86,0,0,1-32.26-21.15l7.41-10.54a118,118,0,0,0,31.66,21.15,92.82,92.82,0,0,0,27.48,7.5,88.87,88.87,0,0,0,22.32-.38" transform="translate(-57.89 -65.42)"/>
</svg>
