<?xml version="1.0" encoding="utf-8"?>
<!-- Generator: Adobe Illustrator 21.0.2, SVG Export Plug-In . SVG Version: 6.00 Build 0)  -->
<svg version="1.1" id="Layer_1" xmlns="http://www.w3.org/2000/svg" xmlns:xlink="http://www.w3.org/1999/xlink" x="0px" y="0px"
	 viewBox="0 0 600 520" style="enable-background:new 0 0 600 520;" xml:space="preserve">
<style type="text/css">
	.st0{fill:#9CC7AC;}
	.st1{fill:#F37566;}
	.st2{fill:#FFF2D7;}
	.st3{fill:#2D2415;}
	.st4{fill:#262323;}
	.st5{fill:#FF7BAC;}
</style>
<path class="st0" d="M58,411c0-11.6,0-23.3,0-35c0.4-89.2,3.5-176.2,9-261c-0.7-10.2,0-24.8,9-36c11.9-14.8,32.2-16.4,120.6-7.8
	C285.4,79.8,307.2,85.6,331,100c20.4,12.4,33.2,25.7,39,32c94.7,102.4,150,170,150,170c4.7,7.1,17.4,15.7,26.6,32.5
	c11.3,20.7,12.9,43.9,14.4,59.5c1,11.3,1.1,20.7,1,27c-98-1.3-196-2.9-294-5C198,414.5,128,412.9,58,411z"/>
<path class="st1" d="M101,292c0.1-8.8,0.3-22.8,0-40c-0.5-33.2-2.6-81.3-3-91c-2.1-47.7-2.9-59.4,6-67c8.1-6.9,17.6-4.8,43-2
	c51.7,5.6,111.4,7.4,152,17c3.9,0.9,11.2,2.7,20,7c11.8,5.7,19.4,12.6,23,16c47.8,44.1,70.6,75.7,115,128
	c14,16.5,14.8,22.8,14.4,25.5c0,0-0.1,0.8-0.4,1.5c-5.1,15.9-166.4,5.9-203,4C227.5,288.9,170.4,287.6,101,292z"/>
<path class="st2" d="M210.7,155.1c0,0,13,1.5,28.7,16.1c2.9,2.8,5.6,5.8,5.6,5.8c1.2,1.5,2.2,2.7,3.1,3.9
	c17.1,22.7,61.6,11.4,63.1,19.4c0.9,5-15.4,16.3-34.4,19.4c-22.4,3.6-34.7-6.1-40.1,0c-9.6,10.6,21.6,47.9,13.5,55.4
	c-5.3,4.9-24.5-6-28-8c-8-4.6-12.8-9.1-15-11c-25.6-22-73-5.8-76.6-17c-0.5-1.6,0.3-2.6,13.4-21.1c4.2-5.9,8.3-11.7,12.5-17.6
	c19.6-27.6,18.3-29.9,25.8-35.5C186.1,161.7,197,153.5,210.7,155.1z"/>
<path class="st3" d="M209.1,155.3c-0.6-2.5-2-1.9-22.8-10.4c-4.4-1.8-7.2-3-9.5-1.1c-2.5,2-3.2,6.7-3.2,18
	c0.1,19.5,0.2,29.3,3.6,30.8C186.1,196.7,212.2,167.2,209.1,155.3"/>
<path class="st4" d="M311.1,203.5c1.6-1.2,1.5-5.1,0-6.5c-1.5-1.3-7.6,0.2-5.7,0c0,0,0.5,5,2.9,6.5
	C309.1,204,310.3,204.1,311.1,203.5"/>
<path class="st3" d="M228,174c0.1-0.5-2.8-2.4-6-2c-2.9,0.4-5.2,2.6-5,3c0.2,0.4,2.2-0.7,6-1C226.2,173.8,227.9,174.3,228,174z"/>
<path class="st1" d="M153,362h-40c-6,0-11-4.9-11-11l0,0c0-6.1,4.9-11,11-11h40c6,0,11,4.9,11,11l0,0C164,357.1,159.1,362,153,362z"
	/>
<rect x="333" y="113" transform="matrix(0.9989 -4.789500e-02 4.789500e-02 0.9989 -10.048 16.6542)" class="st0" width="19" height="210"/>
<path class="st2" d="M234,214c-1.4,4.6,8.3,11.3,13,14c14,8,29.6,6.8,30,5c0.4-1.9-15.6-2.2-23-14c-2.1-3.4-2.7-6.3-6-8
	C243,208.4,235.1,210.4,234,214z"/>
<path class="st2" d="M182,203.5c-29.8,0.4-33.1,33.1-71.7,51.6c-3.4,1.6-6.4,2.8-9.2,3.7c0.1,14.1,0,25.6-0.1,33.2
	c22-1.4,44.9-2.4,68.8-2.8c26.5-0.4,51.9-0.1,76.2,0.8c0.3-7.8,0.4-34-18.1-57.5C221.6,224.5,203.4,203.1,182,203.5z"/>
<path class="st5" d="M236.5,228.4c1,2.3,1.9,4.7,2.9,7c-17.5,5.4-31.6,4.2-39.9,2.7c-1.6-0.3-9.4-1.8-19.5-6.2
	c-14.6-6.3-25.4-14.8-32.3-21.1c2.5-3.5,4.9-7,7.4-10.5c7.9,7.2,18.5,15.3,31.7,21.1c12.5,5.5,22.9,7,27.5,7.4
	C220,229.4,227.6,229.7,236.5,228.4"/>
</svg>
