<?xml version="1.0" encoding="utf-8"?>
<!-- Generator: Adobe Illustrator 21.0.2, SVG Export Plug-In . SVG Version: 6.00 Build 0)  -->
<svg version="1.1" id="Layer_1" xmlns="http://www.w3.org/2000/svg" xmlns:xlink="http://www.w3.org/1999/xlink" x="0px" y="0px"
	 viewBox="0 0 1920 1080" style="enable-background:new 0 0 1920 1080;" xml:space="preserve">
<style type="text/css">
	.st0{fill:#DD685F;}
	.st1{fill:#F29F9C;}
	.st2{clip-path:url(#SVGID_2_);fill:#E2D6BF;}
	.st3{clip-path:url(#SVGID_2_);fill:#FFF2D7;}
	.st4{clip-path:url(#SVGID_2_);fill:#2D2415;}
	.st5{clip-path:url(#SVGID_2_);fill:#262323;}
	.st6{clip-path:url(#SVGID_2_);fill:#FF7BAC;}
	.st7{clip-path:url(#SVGID_2_);fill:#FFFFFF;}
	.st8{fill:#042F42;}
	.st9{font-family:'HelveticaNeue-Bold';}
	.st10{font-size:70.5579px;}
	.st11{letter-spacing:-1;}
	.st12{letter-spacing:-5;}
	.st13{font-size:138.9761px;}
</style>
<rect y="660" class="st0" width="1920" height="420"/>
<rect class="st1" width="1920" height="686"/>
<g>
	<defs>
		<rect id="SVGID_1_" width="1920" height="1080"/>
	</defs>
	<clipPath id="SVGID_2_">
		<use xlink:href="#SVGID_1_"  style="overflow:visible;"/>
	</clipPath>
	<path class="st2" d="M759.7,519.3c-4.7,20.4,20.3,36.6,35.2,84.7c3.1,10.1,5,18.3,8.8,34.6c0,0,18.3,79.2,9.3,120.9
		c-0.7,3.3-1.6,6.6-3.4,10c-8.5,16.7-26.6,15.9-26.4,19.2c0.1,2.7,11.9,4.5,23.5,3.8c8.7-0.5,15.8-2.3,20.5-3.8
		c6.1-36.4,9.6-66.6,11.7-88.5c1.8-18.7,2.7-28.3,2.9-42.3c0.5-29.8-2.6-36.5-2.9-69.3c-0.4-37.7,3.6-38.2,0-50
		c-8.5-27.7-38.3-49.9-61.6-38.5C773,502.2,762.4,507.4,759.7,519.3"/>
	<path class="st2" d="M965.7,564.3c-0.7,6.5-6.6,70.3,35.7,110.4c12.5,11.9,25.6,18.2,35.5,21.7c3.5,24.1,7.2,41.5,10.3,53.9
		c1.7,7.1,2.2,12.9,0,19.2c-5.5,16-24.6,19.6-23.9,23.1c0.4,1.9,6.3,3.3,34.2,0c1-6.8,2.5-17.5,3.4-30.8c1.1-15.3,0.7-22.7,1.4-37.7
		c0.4-9,1.4-22.3,3.5-38.5c-11.6-5.7-28.3-16.7-32-34.9c-1.4-6.6-0.2-14.8,2.2-30.9c4.1-27.9,7.4-28.9,6.9-37.7
		c-0.7-10.7-39.8-69.9-62.8-57.7C969.4,530,967.4,548.1,965.7,564.3"/>
	<path class="st3" d="M763.2,453.9c-13.4,26.3-4.5,55,0,69.3c13.5,43.2,46.5,62.7,51.3,65.4c30.6,17.4,61,12.3,89,7.7
		c53.5-8.9,70.1-32.1,99.2-19.2c16.1,7.1,16.2,18.1,37.6,26.9c5.5,2.3,36.1,16.3,54.7,0c11.5-10.1,13.4-27.1,13.7-30.8
		c2.6-31.1-22.1-62.8-47.9-77c-35.6-19.5-83.1-11.1-96.8-8.6c-5.7,1-22,3.4-42.5-0.5c-5.3-1-11-2.9-18-6.2
		c-46.1-22.1-50-61.1-85.5-61.6C797,419,774.2,432.2,763.2,453.9"/>
	<path class="st3" d="M804.2,538.6c-4.7,20.4,20.3,36.6,35.2,84.7c3.1,10.1,5,18.3,8.8,34.6c0,0,18.3,79.2,9.3,120.9
		c-0.7,3.3-1.6,6.6-3.4,10c-8.5,16.7-26.6,15.9-26.4,19.2c0.2,2.7,11.9,4.5,23.5,3.8c8.7-0.5,15.8-2.3,20.5-3.8
		c6.1-36.4,9.6-66.6,11.7-88.5c1.8-18.7,2.7-28.3,2.9-42.3c0.5-29.8-2.6-36.5-2.9-69.3c-0.4-37.7,3.6-38.2,0-50
		c-8.5-27.7-38.3-49.9-61.6-38.5C817.5,521.4,806.9,526.7,804.2,538.6"/>
	<path class="st3" d="M1019.8,580.9c0.5,7.2,6.2,72,54.7,100.1c14.1,8.2,27.7,10.8,37.6,11.5c11.6,28,17.4,50.5,20.5,65.4
		c2.1,9.9,3.3,18.3,0,26.9c-5.8,15.2-21.4,19.2-20.5,23.1c0.6,2.7,8.9,4,37.6,0c0.2-6.1,0.4-15.5,0-26.9
		c-0.9-23.7-3.7-36.8-6.8-65.4c-1-9.1-2.3-22.3-3.4-38.5c-12.4-2.9-30.7-9.9-37.6-26.9c-2.5-6.2-2.9-14.4-3.4-30.8
		c-1-28.3,2.1-30,0-38.5c-2.5-10.3-51.5-59.5-71.8-42.3C1017.2,546.5,1018.6,564.7,1019.8,580.9"/>
	<path class="st3" d="M1052.8,497.1c0-2.4,11.1,4.2,30,7c12.1,1.8,49.5,5.3,71.6-24.8c5.1-6.9,9.3-12.9,8.8-23.6
		c-1.1-23.9-24.4-47.6-22-52.4c1.8-3.5,15.5,5.2,25.6,18.8c13.5,18.1,16.4,39.2,16.8,42.5c3.8,30.8-12.9,46.7-19.9,53.2
		c-16.7,15.7-36.8,13.7-46.3,12.6C1084.6,526.4,1052.7,501.1,1052.8,497.1"/>
	<path class="st3" d="M783.7,361.5c-15.7,1.7-27.4,12.8-34.2,19.2c-5.4,5.1-8.1,8.6-10.3,11.5c-20.4,27.1-73.5,13.7-75.3,23.1
		c-1.1,5.9,18.4,19.5,41.1,23.1c26.6,4.2,40.6-7.8,47.9,0c8.6,9.2-14.8,31.1-13.7,65.4c1,30,19.6,59.7,30.8,57.7
		c10.3-1.9-2-39.8,17.1-65.4c26.5-35.7,87.4-14.5,92.4-34.6c2-8.1-7.8-11.1-30.8-46.2c-15.7-24-17.7-32.8-30.8-42.3
		C812.3,369,799.9,359.8,783.7,361.5"/>
	<path class="st4" d="M783.3,351.4c1.9-2.4,3.1-1.1,29.9,0c5.7,0.2,9.3,0.3,10.9,3.5c1.7,3.4,0.2,8.8-5.4,21.1
		c-9.7,21.1-14.6,31.7-19,31.7C788,407.7,774.1,362.9,783.3,351.4"/>
	<path class="st5" d="M664,419.3c-1.9-1.5-1.8-6.1,0-7.7c1.8-1.6,9.1,0.3,6.8,0c0,0-0.6,6-3.4,7.7C666.4,419.9,664.9,420,664,419.3"
		/>
	<path class="st6" d="M752.9,449c-1.1,2.8-2.3,5.6-3.4,8.4c20.9,6.5,37.7,5,47.6,3.2c1.9-0.4,11.2-2.1,23.3-7.4
		c17.4-7.5,30.3-17.6,38.5-25.2c-2.9-4.2-5.9-8.4-8.8-12.6c-9.4,8.6-22.1,18.2-37.8,25.2c-14.9,6.6-27.4,8.3-32.8,8.9
		C772.6,450.2,763.5,450.5,752.9,449"/>
	<path class="st4" d="M766.6,390.4c0,3.2-2.3,5.8-5.1,5.8c-2.8,0-5.1-2.6-5.1-5.8c0-3.2,2.3-5.8,5.1-5.8
		C764.3,384.6,766.6,387.2,766.6,390.4"/>
	<path class="st7" d="M1586,1025H401c-6.6,0-12-5.4-12-12V904c0-6.6,5.4-12,12-12h1185c6.6,0,12,5.4,12,12v109
		C1598,1019.6,1592.6,1025,1586,1025"/>
</g>
<text transform="matrix(1 0 0 1 440.7905 978.0615)"><tspan x="0" y="0" class="st8 st9 st10">Sc</tspan><tspan x="86.3" y="0" class="st8 st9 st10 st11">r</tspan><tspan x="112.5" y="0" class="st8 st9 st10">oll down to see Pepper</tspan><tspan x="884.6" y="0" class="st8 st9 st10 st12">’</tspan><tspan x="899" y="0" class="st8 st9 st10">s day!</tspan></text>
<text transform="matrix(1 0 0 1 122 209)" class="st8 st9 st13">Day In The Life of Pepper</text>
</svg>
