<?xml version="1.0" encoding="utf-8"?>
<!-- Generator: Adobe Illustrator 21.0.2, SVG Export Plug-In . SVG Version: 6.00 Build 0)  -->
<svg version="1.1" id="Layer_1" xmlns="http://www.w3.org/2000/svg" xmlns:xlink="http://www.w3.org/1999/xlink" x="0px" y="0px"
	 viewBox="0 0 1920 1080" style="enable-background:new 0 0 1920 1080;" xml:space="preserve">
<style type="text/css">
	.st0{fill:#9CC7AC;}
	.st1{fill:#EDF4EF;}
	.st2{fill:#F37566;}
	.st3{fill:#F4D7D7;}
	.st4{fill:#BDDFCF;}
</style>
<rect class="st0" width="1920" height="1079"/>
<g>
	<path class="st1" d="M1218.2,515.7H809.7V884c0,22.3,18.1,40.4,40.4,40.4h327.9c22.3,0,40.4-18.1,40.4-40.4V515.7z"/>
	<path class="st1" d="M885,495.2h-42.8c-3.5,0-6.3-2.8-6.3-6.3V298.3c0-3.5,2.8-6.3,6.3-6.3H885c3.5,0,6.3,2.8,6.3,6.3v190.6
		C891.3,492.4,888.5,495.2,885,495.2z"/>
	<path class="st2" d="M1001.9,243.2L784.1,511.4c-8.3,10.2-1,25.4,12.1,25.4h435.4c13.1,0,20.4-15.2,12.1-25.4l-217.7-268.2
		C1019.8,235.5,1008.1,235.5,1001.9,243.2z"/>
	<path class="st3" d="M578.7,303.5c0,0-9.3-2-16.4,1.3c-4.4,2.1-7.8,6.7-8.5,11.2c-1.8,10.8,11.3,20.2,15.9,23.5
		c6.5,4.6,9.6,4.7,27.9,10.8c25.6,8.5,31.2,12.3,37.1,8.9c5.7-3.2,7.6-10.4,9-20.7c4.8-34.9,9.4-68.9-10.9-80.3
		c-14.3-8.1-39.8-4-50.7,13.3C573.7,284.9,577.8,300.1,578.7,303.5z"/>
	<path class="st3" d="M1344.1,235.1c0,0-4.3-13.5-13.7-20.1c-5.9-4.2-14.4-5.1-20.8-2.7c-15.3,5.6-17.6,29.4-18.5,37.8
		c-1.6,16.3,1.9,28.4,6.7,43.9c6.9,22.4,10.3,33.6,19.1,36.6c10,3.4,21.5-6,44.5-25c25.3-20.8,30.4-32.6,32.3-37.7
		c2.8-7.5,6.8-18.5,1.4-29c-4.6-8.9-15.1-15.6-25-15.1C1356.8,224.5,1344.1,235.1,1344.1,235.1z"/>
	<path class="st3" d="M582,526.4c0,0-14.1,1.5-22.5,9.4c-5.3,5-7.8,13.1-6.8,19.8c2.5,16.1,25.4,23.1,33.4,25.6
		c15.6,4.8,28.3,3.7,44.3,2.2c23.3-2.3,35-3.5,39.7-11.5c5.3-9.1-1.7-22.2-15.7-48.5c-15.4-28.9-25.9-36.3-30.6-39.1
		c-6.8-4.2-16.8-10.3-28.2-7.1c-9.7,2.8-18.3,11.7-19.7,21.5C574.1,511.8,582,526.4,582,526.4z"/>
	<path class="st3" d="M1392.3,513.7c13.3-8.2,18.1-24.2,12.4-36.1c-6.2-12.9-22.4-15.6-32.9-13.2c-13.5,3-20.3,14.9-24.6,22.6
		c-9.5,16.7-8.4,33.2-7.6,45.8c1.1,17.7,2,31,11.7,38.4c8.5,6.4,18.8,4.7,39.4,1.2c27.9-4.7,41.9-15.3,46-18.7
		c11.1-9,12.7-15.4,13.2-17.4c2.1-9.7-2.7-19.4-8.2-24.6C1430.8,501.4,1410.2,501.4,1392.3,513.7z"/>
	<path class="st3" d="M773.7,212.4c0,0-5.1-7.2-11.9-9.3c-6.1-1.9-11.2,1.4-12.8,2.3c-8.4,5.2-10.7,16.7-9.6,24.9
		c1.2,9.5,7.1,15.1,18.2,25.7c9.7,9.3,14.5,13.9,20.9,13.4c6.8-0.6,11-6.7,19-18.5c6.2-9.2,11.4-17.2,11.9-28.5
		c0.2-5,0.5-12.2-4.7-17.4c-4.7-4.7-11.9-5.7-17.6-4.2C777.7,203.2,774.1,211.4,773.7,212.4z"/>
	<path class="st3" d="M1167.9,185.7c0,0-5.1-7.2-11.9-9.3c-4.9-1.5-9,0.7-12.8,2.3c-4.5,2-14.3,6.4-17.8,16.7
		c-4.9,14.5,7.1,27.6,8.2,28.7c3.9,4.1,8.7,6.1,18.5,10.3c13.6,5.8,20.4,8.6,26.7,6.2c3.9-1.6,6.9-6.6,12.8-16.5
		c7.7-13,11.5-19.7,11.9-28.5c0.2-5,0.5-12.2-4.7-17.4c-4.7-4.7-11.9-5.7-17.6-4.2C1171.9,176.5,1168.3,184.8,1167.9,185.7z"/>
	<path class="st4" d="M1173.7,706.7h-72c-6.2,0-11.2-5-11.2-11.2V594.7c0-6.2,5-11.2,11.2-11.2h72c6.2,0,11.2,5,11.2,11.2v100.8
		C1184.9,701.7,1179.9,706.7,1173.7,706.7z"/>
	<path class="st4" d="M1050.5,706.7h-72c-6.2,0-11.2-5-11.2-11.2V594.7c0-6.2,5-11.2,11.2-11.2h72c6.2,0,11.2,5,11.2,11.2v100.8
		C1061.7,701.7,1056.7,706.7,1050.5,706.7z"/>
	<path class="st4" d="M927.3,706.7h-72c-6.2,0-11.2-5-11.2-11.2V594.7c0-6.2,5-11.2,11.2-11.2h72c6.2,0,11.2,5,11.2,11.2v100.8
		C938.5,701.7,933.5,706.7,927.3,706.7z"/>
	<path class="st4" d="M1173,875h-70.6c-6.6,0-11.9-5.3-11.9-11.9V747.4c0-6.6,5.3-11.9,11.9-11.9h70.6c6.6,0,11.9,5.3,11.9,11.9
		v115.7C1184.9,869.7,1179.6,875,1173,875z"/>
	<path class="st4" d="M1061.7,924.3h-94.4v-175c0-7.7,6.2-13.9,13.9-13.9h66.7c7.7,0,13.9,6.2,13.9,13.9V924.3z"/>
	<path class="st4" d="M926.6,875H856c-6.6,0-11.9-5.3-11.9-11.9V747.4c0-6.6,5.3-11.9,11.9-11.9h70.6c6.6,0,11.9,5.3,11.9,11.9
		v115.7C938.5,869.7,933.2,875,926.6,875z"/>
	<rect x="887.2" y="558.9" class="st1" width="10.3" height="344.9"/>
	<rect x="1133.6" y="558.9" class="st1" width="10.3" height="344.9"/>
	<rect x="1010.4" y="558.9" class="st1" width="10.3" height="160.1"/>
	
		<rect x="1010.1" y="464.1" transform="matrix(6.123234e-17 -1 1 6.123234e-17 369.6743 1661.3661)" class="st1" width="10.8" height="363.4"/>
	
		<rect x="886.2" y="748.8" transform="matrix(6.123234e-17 -1 1 6.123234e-17 85.0414 1697.5708)" class="st1" width="10.3" height="115"/>
	
		<rect x="1138.7" y="748.8" transform="matrix(6.123234e-17 -1 1 6.123234e-17 337.5759 1950.1052)" class="st1" width="10.3" height="115"/>
	<circle class="st0" cx="1046.3" cy="833" r="7.2"/>
</g>
</svg>
