<svg id="Layer_1" data-name="Layer 1" xmlns="http://www.w3.org/2000/svg" viewBox="0 0 521.63 462">
  <defs>
    <style>
      .cls-1 {
        fill: #e2d6bf;
      }

      .cls-2 {
        fill: #fff2d7;
      }

      .cls-3 {
        fill: #2d2415;
      }

      .cls-4 {
        fill: #262323;
      }

      .cls-5 {
        fill: #ff7bac;
      }
    </style>
  </defs>
  <title>greetpepper</title>
  <g>
    <path class="cls-1" d="M127.1,199.71c-2.21,20.84,24.45,34,45,79.91,4.31,9.65,7.16,17.55,12.84,33.35,0,0,27.52,76.46,23.5,118.91a40.23,40.23,0,0,1-2.17,10.34c-6.43,17.61-24.52,18.93-23.94,22.24.47,2.67,12.38,3.07,23.76,1A83,83,0,0,0,226,459.24c1.78-36.87,1.68-67.29,1.16-89.29-.44-18.73-.68-28.39-2.1-42.39-3-29.63-6.88-36-11.12-68.44-4.88-37.43-.94-38.39-5.93-49.68-11.71-26.53-44-45-65.73-30.92-4,2.59-13.91,9-15.2,21.19" transform="translate(-37.59 -29.64)"/>
    <path class="cls-1" d="M345.72,229.94c-.7,6.52-6.57,70.28,35.7,110.42A98.7,98.7,0,0,0,416.91,362c3.55,24.05,7.24,41.49,10.26,53.88,1.72,7.05,2.18,12.85,0,19.24-5.46,16-24.63,19.59-23.95,23.09.36,1.87,6.26,3.3,34.21,0,1-6.84,2.49-17.54,3.42-30.79,1.07-15.3.66-22.66,1.39-37.67.44-9,1.36-22.25,3.54-38.47-11.59-5.68-28.26-16.68-32-34.92-1.37-6.6-.21-14.8,2.16-30.93,4.1-27.92,7.43-28.91,6.89-37.7C422.14,237.11,383,177.85,360,190c-10.62,5.63-12.55,23.77-14.28,39.92" transform="translate(-37.59 -29.64)"/>
    <path class="cls-2" d="M138.2,133.56c-13.41,26.34-4.46,55,0,69.28,13.5,43.23,46.51,62.7,51.32,65.43,30.6,17.38,61,12.33,89,7.7,53.5-8.87,70.06-32.13,99.22-19.24,16.13,7.12,16.2,18.09,37.63,26.94,5.5,2.27,36.06,16.28,54.74,0,11.54-10.06,13.38-27.14,13.69-30.79,2.65-31.09-22.07-62.82-47.9-77-35.58-19.5-83.15-11.05-96.82-8.62a119.46,119.46,0,0,1-42.54-.54,72.65,72.65,0,0,1-18-6.23c-46.06-22.05-50-61.06-85.53-61.58-21-.31-43.7,12.95-54.74,34.64" transform="translate(-37.59 -29.64)"/>
    <path class="cls-2" d="M179.16,218.23c-4.67,20.43,20.26,36.63,35.21,84.67,3.14,10.09,5,18.27,8.8,34.64,0,0,18.26,79.19,9.25,120.85a40.18,40.18,0,0,1-3.38,10c-8.47,16.72-26.59,15.89-26.4,19.24.15,2.71,11.93,4.52,23.47,3.85a83,83,0,0,0,20.54-3.85c6.14-36.4,9.64-66.62,11.73-88.52,1.78-18.65,2.68-28.27,2.93-42.34.53-29.77-2.58-36.52-2.93-69.28-.41-37.75,3.61-38.24,0-50C249.88,209.75,220,187.54,196.76,199c-4.27,2.1-14.88,7.32-17.6,19.24" transform="translate(-37.59 -29.64)"/>
    <path class="cls-2" d="M394.8,260.57c.53,7.18,6.19,72,54.74,100.07a88.11,88.11,0,0,0,37.63,11.55,365.33,365.33,0,0,1,20.53,65.43c2.06,9.89,3.32,18.32,0,26.94-5.85,15.21-21.4,19.24-20.53,23.09.61,2.68,8.86,4,37.64,0,.23-6.11.42-15.5,0-26.94-.88-23.75-3.69-36.84-6.84-65.43-1-9.09-2.32-22.31-3.42-38.49-12.37-2.94-30.67-9.94-37.63-26.94-2.52-6.15-2.86-14.45-3.42-30.79-1-28.28,2.1-30,0-38.49-2.55-10.29-51.53-59.47-71.85-42.34-9.39,7.91-8,26.12-6.84,42.34" transform="translate(-37.59 -29.64)"/>
    <path class="cls-2" d="M427.78,176.71c0-2.36,11.07,4.21,30,7,12.13,1.79,49.5,5.26,71.58-24.79,5.09-6.92,9.31-12.91,8.83-23.64-1.08-23.91-24.44-47.55-22-52.43,1.77-3.49,15.47,5.2,25.62,18.82,13.53,18.15,16.38,39.17,16.79,42.46,3.84,30.84-12.95,46.67-19.87,53.19C522.14,213,502,211,492.55,209.91c-32.91-3.87-64.81-29.19-64.77-33.2" transform="translate(-37.59 -29.64)"/>
    <path class="cls-2" d="M158.73,41.19C143,42.85,131.29,54,124.51,60.43A83.44,83.44,0,0,0,114.25,72C93.85,99.06,40.73,85.63,39,95.07,37.89,101,57.33,114.54,80,118.16c26.56,4.24,40.6-7.79,47.9,0,8.62,9.2-14.81,31.12-13.68,65.43,1,30,19.6,59.75,30.79,57.73,10.33-1.86-2-39.75,17.11-65.43,26.49-35.68,87.35-14.48,92.38-34.64,2-8.07-7.85-11.08-30.79-46.19-15.66-24-17.74-32.77-30.79-42.34-5.59-4.1-18.08-13.25-34.21-11.55" transform="translate(-37.59 -29.64)"/>
    <path class="cls-3" d="M158.31,31c1.93-2.42,3.07-1.11,29.92,0,5.65.23,9.29.33,10.88,3.52,1.71,3.44.23,8.84-5.44,21.14-9.75,21.14-14.62,31.7-19,31.71C163,87.38,149.09,42.52,158.31,31" transform="translate(-37.59 -29.64)"/>
    <path class="cls-4" d="M39,98.92c-1.93-1.45-1.77-6.12,0-7.7s9.11.28,6.84,0c0,0-.56,6-3.42,7.7a3.16,3.16,0,0,1-3.42,0" transform="translate(-37.59 -29.64)"/>
    <path class="cls-5" d="M127.94,128.63,124.51,137a98.18,98.18,0,0,0,47.63,3.17,112.4,112.4,0,0,0,23.32-7.37A139.42,139.42,0,0,0,234,107.65l-8.82-12.58a140.75,140.75,0,0,1-37.81,25.17,110.74,110.74,0,0,1-32.8,8.89,106,106,0,0,1-26.63-.5" transform="translate(-37.59 -29.64)"/>
    <path class="cls-3" d="M141.62,70.05c0,3.19-2.3,5.77-5.13,5.77s-5.13-2.58-5.13-5.77,2.3-5.77,5.13-5.77,5.13,2.58,5.13,5.77" transform="translate(-37.59 -29.64)"/>
  </g>
</svg>
