<svg id="Layer_1" data-name="Layer 1" xmlns="http://www.w3.org/2000/svg" xmlns:xlink="http://www.w3.org/1999/xlink" viewBox="0 0 1920 1080">
  <defs>
    <style>
      .cls-1 {
        fill: none;
      }

      .cls-2 {
        fill: #dd685f;
      }

      .cls-3 {
        fill: #f29f9c;
      }

      .cls-4 {
        clip-path: url(#clip-path);
      }

      .cls-5 {
        fill: #e2d6bf;
      }

      .cls-6 {
        fill: #fff2d7;
      }

      .cls-7 {
        fill: #2d2415;
      }

      .cls-8 {
        fill: #262323;
      }

      .cls-9 {
        fill: #ff7bac;
      }

      .cls-10 {
        fill: #fff;
      }

      .cls-11 {
        font-size: 70.56px;
      }

      .cls-11, .cls-12 {
        fill: #042f42;
        font-family: HelveticaNeue-Bold, Helvetica Neue;
        font-weight: 700;
      }

      .cls-12 {
        font-size: 138.98px;
      }
    </style>
    <clipPath id="clip-path">
      <rect class="cls-1" y="-50" width="1920" height="1080"/>
    </clipPath>
  </defs>
  <title>navPageImg</title>
  <rect class="cls-2" y="660" width="1920" height="420"/>
  <rect class="cls-3" width="1920" height="686"/>
  <g class="cls-4">
    <path class="cls-5" d="M1139.68,469.35c-4.67,20.43,20.26,36.63,35.2,84.67,3.14,10.09,5,18.27,8.8,34.64,0,0,18.26,79.19,9.25,120.85a40.23,40.23,0,0,1-3.38,10c-8.47,16.72-26.59,15.89-26.4,19.24.15,2.71,11.93,4.52,23.47,3.85a83,83,0,0,0,20.54-3.85c6.14-36.4,9.64-66.62,11.73-88.52,1.78-18.65,2.68-28.27,2.93-42.34.53-29.78-2.58-36.52-2.93-69.28-.41-37.75,3.61-38.24,0-50-8.49-27.73-38.34-49.94-61.61-38.49-4.27,2.1-14.88,7.32-17.6,19.24"/>
    <path class="cls-5" d="M1345.72,514.3c-.7,6.52-6.57,70.28,35.7,110.42a98.71,98.71,0,0,0,35.48,21.67c3.55,24.05,7.24,41.49,10.26,53.88,1.72,7.05,2.18,12.85,0,19.24-5.46,16-24.63,19.59-23.95,23.09.36,1.87,6.26,3.3,34.21,0,1-6.84,2.49-17.54,3.42-30.79,1.07-15.3.66-22.66,1.39-37.67.44-9,1.36-22.25,3.54-38.47-11.59-5.68-28.26-16.68-32-34.92-1.37-6.6-.21-14.8,2.16-30.93,4.1-27.92,7.43-28.91,6.89-37.7-.65-10.66-39.82-69.92-62.8-57.75-10.61,5.63-12.55,23.77-14.28,39.92"/>
    <path class="cls-6" d="M1143.2,403.92c-13.41,26.34-4.46,55,0,69.28,13.5,43.23,46.51,62.7,51.32,65.43,30.6,17.38,61,12.33,89,7.7,53.5-8.87,70.06-32.13,99.22-19.24,16.13,7.12,16.2,18.09,37.63,26.94,5.5,2.27,36.06,16.28,54.74,0,11.54-10.06,13.38-27.14,13.69-30.79,2.65-31.09-22.07-62.82-47.9-77-35.58-19.5-83.15-11.05-96.82-8.62a119.46,119.46,0,0,1-42.54-.54,72.65,72.65,0,0,1-18-6.23c-46.06-22.05-50-61.06-85.53-61.58-21-.31-43.7,12.95-54.74,34.64"/>
    <path class="cls-6" d="M1184.16,488.59c-4.67,20.43,20.26,36.63,35.21,84.67,3.14,10.09,5,18.27,8.8,34.64,0,0,18.26,79.19,9.25,120.85a40.18,40.18,0,0,1-3.38,10c-8.47,16.72-26.59,15.89-26.4,19.24.15,2.71,11.93,4.52,23.47,3.85a83,83,0,0,0,20.54-3.85c6.14-36.4,9.64-66.62,11.73-88.52,1.78-18.65,2.68-28.27,2.93-42.34.53-29.77-2.58-36.52-2.93-69.28-.41-37.75,3.61-38.24,0-50-8.49-27.73-38.34-49.94-61.61-38.49-4.27,2.1-14.88,7.32-17.6,19.24"/>
    <path class="cls-6" d="M1399.8,530.93c.53,7.18,6.19,72,54.74,100.07a88.11,88.11,0,0,0,37.63,11.55A365.33,365.33,0,0,1,1512.7,708c2.06,9.89,3.32,18.32,0,26.94-5.85,15.21-21.4,19.24-20.53,23.09.61,2.68,8.86,4,37.64,0,.23-6.11.42-15.5,0-26.94-.88-23.75-3.69-36.84-6.84-65.43-1-9.09-2.32-22.31-3.42-38.49-12.37-2.94-30.67-9.94-37.63-26.94-2.52-6.15-2.86-14.45-3.42-30.79-1-28.28,2.1-30,0-38.49-2.55-10.29-51.53-59.47-71.85-42.34-9.39,7.91-8,26.12-6.84,42.34"/>
    <path class="cls-6" d="M1432.78,447.07c0-2.36,11.07,4.21,30,7,12.13,1.79,49.5,5.26,71.58-24.79,5.09-6.92,9.31-12.91,8.83-23.64-1.08-23.91-24.44-47.55-22-52.43,1.77-3.49,15.47,5.2,25.62,18.82,13.53,18.15,16.38,39.17,16.79,42.46,3.84,30.84-12.95,46.67-19.87,53.19-16.66,15.71-36.79,13.7-46.25,12.59-32.91-3.87-64.81-29.19-64.77-33.2"/>
    <path class="cls-6" d="M1163.73,311.55c-15.69,1.66-27.44,12.82-34.21,19.24a83.44,83.44,0,0,0-10.26,11.55c-20.4,27.08-73.52,13.66-75.27,23.09-1.1,5.93,18.35,19.47,41.06,23.09,26.56,4.24,40.6-7.79,47.9,0,8.62,9.2-14.81,31.12-13.68,65.43,1,30,19.6,59.75,30.79,57.73,10.33-1.86-2-39.75,17.11-65.43,26.49-35.68,87.35-14.48,92.38-34.64,2-8.07-7.85-11.08-30.79-46.19-15.66-24-17.74-32.77-30.79-42.34-5.59-4.1-18.08-13.25-34.21-11.55"/>
    <path class="cls-7" d="M1163.31,301.36c1.93-2.42,3.07-1.11,29.92,0,5.65.23,9.29.33,10.88,3.52,1.71,3.44.23,8.84-5.44,21.14-9.75,21.14-14.62,31.7-19,31.71-11.68,0-25.54-44.85-16.32-56.37"/>
    <path class="cls-8" d="M1044,369.28c-1.93-1.45-1.77-6.12,0-7.7s9.11.28,6.84,0c0,0-.56,6-3.42,7.7a3.16,3.16,0,0,1-3.42,0"/>
    <path class="cls-9" d="M1132.94,399l-3.42,8.39a98.18,98.18,0,0,0,47.63,3.17,112.4,112.4,0,0,0,23.32-7.37A139.42,139.42,0,0,0,1239,378l-8.82-12.58a140.75,140.75,0,0,1-37.81,25.17,110.74,110.74,0,0,1-32.8,8.89,106,106,0,0,1-26.62-.5"/>
    <path class="cls-7" d="M1146.62,340.41c0,3.19-2.3,5.77-5.13,5.77s-5.13-2.58-5.13-5.77,2.3-5.77,5.13-5.77,5.13,2.58,5.13,5.77"/>
    <path class="cls-10" d="M1586,975H401a12,12,0,0,1-12-12V854a12,12,0,0,1,12-12H1586a12,12,0,0,1,12,12V963a12,12,0,0,1-12,12"/>
  </g>
  <text class="cls-11" transform="translate(440.79 928.06)">Sc</text>
  <text class="cls-11" transform="translate(527.08 928.06)">r</text>
  <text class="cls-11" transform="translate(553.33 928.06)">oll down to see Pepper</text>
  <text class="cls-11" transform="translate(1325.37 928.06)">’</text>
  <text class="cls-11" transform="translate(1339.77 928.06)">s day!</text>
  <text class="cls-12" transform="translate(122 209)">Day In The Life of Pepper</text>
</svg>
