<?xml version="1.0" encoding="utf-8"?>
<!-- Generator: Adobe Illustrator 21.0.2, SVG Export Plug-In . SVG Version: 6.00 Build 0)  -->
<svg version="1.1" id="Layer_1" xmlns="http://www.w3.org/2000/svg" xmlns:xlink="http://www.w3.org/1999/xlink" x="0px" y="0px"
	 viewBox="0 0 1920 1080" style="enable-background:new 0 0 1920 1080;" xml:space="preserve">
<style type="text/css">
	.st0{fill:#595150;}
	.st1{clip-path:url(#SVGID_2_);fill:#77615F;}
	.st2{clip-path:url(#SVGID_2_);fill:#FFF2D7;}
	.st3{clip-path:url(#SVGID_2_);fill:#2D2415;}
	.st4{clip-path:url(#SVGID_2_);fill:#262323;}
	.st5{clip-path:url(#SVGID_2_);fill:#F9C6C2;}
	.st6{clip-path:url(#SVGID_2_);fill:#9CC7AC;}
	.st7{clip-path:url(#SVGID_2_);fill:#BDDFCF;}
	.st8{fill:#FFFFFF;}
	.st9{font-family:'HelveticaNeue-Bold';}
	.st10{font-size:110px;}
	.st11{font-size:209.6636px;}
	.st12{font-size:136.8027px;}
	.st13{font-size:78.9988px;}
	.st14{font-size:176.0315px;}
	.st15{clip-path:url(#SVGID_4_);fill:#FFFFFF;}
	.st16{font-size:133.4305px;}
	.st17{fill:#042F42;}
	.st18{font-size:70.5579px;}
</style>
<rect y="0.5" class="st0" width="1920" height="1079"/>
<g>
	<defs>
		<rect id="SVGID_1_" width="1920" height="1080"/>
	</defs>
	<clipPath id="SVGID_2_">
		<use xlink:href="#SVGID_1_"  style="overflow:visible;"/>
	</clipPath>
	<path class="st1" d="M600,381.1h685.1c6.6,0,12,5.4,12,12c8.6,61.7,14.6,133.5,13.9,213.4c-0.6,68.9-6.2,131.5-13.9,186.4
		c0,0.8-0.1,5-3.5,8.5c-2.2,2.2-5.2,3.5-8.5,3.5c-32.6,10.2-82.5,22.9-144.1,26.6c-87.7,5.3-100.9-13.3-195-13
		c-107,0.4-127.9,24.7-219,16c-54.6-5.2-98.4-18.9-127-29.6c-1,0-5.2-0.2-8.5-3.5c-2.2-2.2-3.5-5.2-3.5-8.5
		c-8.1-52.9-14-113.4-15-180.4c-1.2-83,5.5-156.9,15-219.4L600,381.1z"/>
	<path class="st2" d="M984.6,480.5c32.8-64.4,10.9-134.4,0-169.3c-14.8-47.3-53.1-84.3-125.4-159.9c-38.9-40.6-51.8-48.9-64.1-54.9
		c-47.6-23-116.7-25.9-159,5c-78.2,57.2-48.6,218,5.8,313.2c13.6,23.9,90.6,148.7,209,150.5C902,565.9,957.6,533.5,984.6,480.5"/>
	<path class="st2" d="M934.4,706.3c38.3-4.1,67.1-31.3,83.6-47c13.1-12.5,19.7-21.1,25.1-28.2c49.8-66.2,179.7-33.4,183.9-56.4
		c2.7-14.5-44.8-47.6-100.3-56.4c-64.9-10.4-99.2,19-117.1,0c-21.1-22.5,36.2-76.1,33.4-159.9c-2.4-73.2-47.9-146-75.2-141.1
		c-25.2,4.5,4.8,97.1-41.8,159.9c-64.7,87.2-213.5,35.4-225.7,84.6c-4.9,19.7,19.2,27.1,75.2,112.9c38.3,58.6,43.4,80.1,75.2,103.5
		C864.5,688.1,895,710.4,934.4,706.3"/>
	<path class="st3" d="M931.4,712.1c-4.7,5.9-7.5,2.7-73.1,0c-13.8-0.6-22.7-0.8-26.6-8.6c-4.2-8.4-0.6-21.6,13.3-51.7
		c23.8-51.6,35.7-77.5,46.5-77.5C920.1,574.4,953.9,684,931.4,712.1"/>
	<path class="st4" d="M1227,565.2c4.7,3.6,4.3,15,0,18.8c-4.4,3.9-22.3-0.7-16.7,0c0,0,1.4-14.6,8.4-18.8
		C1221.2,563.7,1224.7,563.4,1227,565.2"/>
	<path class="st5" d="M1009.6,492.6c2.8-6.8,5.6-13.7,8.4-20.5c-51-15.9-92.1-12.3-116.4-7.8c-4.7,0.9-27.4,5.3-57,18
		c-42.4,18.3-74,43.1-94.2,61.5c7.2,10.2,14.4,20.5,21.6,30.8c23.1-21.1,54.1-44.6,92.4-61.5c36.4-16.1,66.9-20.3,80.1-21.7
		C961.5,489.5,983.7,488.8,1009.6,492.6"/>
	<path class="st3" d="M1018,631.5c0.8-1.5-5.5-7.6-13-11c-14.8-6.8-32-2.2-32,0c0,1.4,6.9,1.1,25,6
		C1011.3,630.1,1017.3,632.8,1018,631.5"/>
	<rect y="0.5" class="st6" width="1920" height="429"/>
	<rect y="344.5" class="st7" width="1920" height="88"/>
	<path class="st2" d="M1067.8,401.3c7.5,12.6,11.7,34.9-1.2,46.5c-12.6,11.3-32.3,4.4-34.6,3.6c-12.3-4.5-27.3-16.9-26.8-34
		c0.5-20.8,23.7-37.2,41.7-33.4C1059.1,386.6,1065.6,397.6,1067.8,401.3"/>
	<path class="st3" d="M1038,409.5c0.4-0.4-3.2-3.5-6-10c-2.7-6.4-2.4-11-3-11c-0.7,0-2.3,6.2,0,12
		C1031.5,406.6,1037.5,410,1038,409.5"/>
	<path class="st3" d="M1023.5,419c0.4-0.4-3.2-3.5-6-10c-2.7-6.4-2.4-11-3-11c-0.7,0-2.3,6.2,0,12C1017,416.1,1023,419.5,1023.5,419
		"/>
	<path class="st3" d="M1012.5,430c0.4-0.4-3.2-3.5-6-10c-2.7-6.4-2.4-11-3-11c-0.7,0-2.3,6.2,0,12C1006,427.1,1012,430.5,1012.5,430
		"/>
	<path class="st2" d="M765.4,417.3c-7.5,12.6-11.7,34.9,1.2,46.5c12.6,11.3,32.3,4.4,34.6,3.6c12.3-4.5,27.3-16.9,26.8-34
		c-0.5-20.8-23.7-37.2-41.7-33.4C774.1,402.6,767.5,413.6,765.4,417.3"/>
	<path class="st3" d="M795.2,425.5c-0.4-0.4,3.2-3.5,6-10c2.7-6.4,2.4-11,3-11c0.7,0,2.3,6.2,0,12
		C801.7,422.6,795.7,426,795.2,425.5"/>
	<path class="st3" d="M809.7,435c-0.4-0.4,3.2-3.5,6-10c2.7-6.4,2.4-11,3-11c0.7,0,2.3,6.2,0,12C816.2,432.1,810.2,435.5,809.7,435"
		/>
	<path class="st3" d="M820.7,446c-0.4-0.4,3.2-3.5,6-10c2.7-6.4,2.4-11,3-11c0.7,0,2.3,6.2,0,12C827.2,443.1,821.2,446.5,820.7,446"
		/>
</g>
<text transform="matrix(1 0 0 1 335.7461 988.0889)" class="st8 st9 st10">z</text>
<text transform="matrix(1 0 0 1 814.7959 937.0488)" class="st8 st9 st10">z</text>
<text transform="matrix(1 0 0 1 438.8823 915.5)" class="st8 st9 st11">z</text>
<text transform="matrix(1 0 0 1 1351.8828 836.0586)" class="st8 st9 st12">z</text>
<text transform="matrix(1 0 0 1 1367.8818 644.5205)" class="st8 st9 st13">z</text>
<text transform="matrix(1 0 0 1 1268.8965 957.5137)" class="st8 st9 st13">z</text>
<text transform="matrix(1 0 0 1 650.8887 957.5137)" class="st8 st9 st13">z</text>
<text transform="matrix(1 0 0 1 364.1851 701.6768)" class="st8 st9 st14">z</text>
<g>
	<defs>
		<rect id="SVGID_3_" width="1920" height="1080"/>
	</defs>
	<clipPath id="SVGID_4_">
		<use xlink:href="#SVGID_3_"  style="overflow:visible;"/>
	</clipPath>
	<path class="st15" d="M1299,212H585c-6.6,0-12-5.4-12-12v-93c0-6.6,5.4-12,12-12h714c6.6,0,12,5.4,12,12v93
		C1311,206.6,1305.6,212,1299,212"/>
</g>
<text transform="matrix(1 0 0 1 1496.2949 793.1689)" class="st8 st9 st16">z</text>
<text transform="matrix(1 0 0 1 619.9648 178.9395)" class="st17 st9 st18">Goodnight, Pepper!</text>
</svg>
