<?xml version="1.0" encoding="utf-8"?>
<!-- Generator: Adobe Illustrator 21.0.2, SVG Export Plug-In . SVG Version: 6.00 Build 0)  -->
<svg version="1.1" id="Layer_1" xmlns="http://www.w3.org/2000/svg" xmlns:xlink="http://www.w3.org/1999/xlink" x="0px" y="0px"
	 viewBox="0 0 1920 1080" style="enable-background:new 0 0 1920 1080;" xml:space="preserve">
<style type="text/css">
	.st0{fill:#DD685F;}
	.st1{clip-path:url(#SVGID_2_);fill:#F37566;}
	.st2{clip-path:url(#SVGID_2_);fill:#FFF2D7;}
	.st3{clip-path:url(#SVGID_2_);fill:#2D2415;}
	.st4{clip-path:url(#SVGID_2_);fill:#262323;}
	.st5{clip-path:url(#SVGID_2_);fill:#F9C6C2;}
	.st6{clip-path:url(#SVGID_2_);fill:#9CC7AC;}
	.st7{clip-path:url(#SVGID_2_);fill:#BDDFCF;}
	.st8{fill:#FFFFFF;}
	.st9{font-family:'HelveticaNeue-Bold';}
	.st10{font-size:110px;}
	.st11{font-size:209.6636px;}
	.st12{clip-path:url(#SVGID_4_);}
	.st13{font-size:136.8027px;}
	.st14{font-size:78.9988px;}
	.st15{clip-path:url(#SVGID_6_);}
	.st16{font-size:176.0315px;}
	.st17{clip-path:url(#SVGID_6_);fill:#FFFFFF;}
	.st18{font-size:133.4305px;}
	.st19{fill:#042F42;}
	.st20{font-size:70.5579px;}
</style>
<rect class="st0" width="1920" height="1079"/>
<g>
	<defs>
		<rect id="SVGID_1_" width="1920" height="1080"/>
	</defs>
	<clipPath id="SVGID_2_">
		<use xlink:href="#SVGID_1_"  style="overflow:visible;"/>
	</clipPath>
	<path class="st1" d="M1320,698.4H634.9c-6.6,0-12-5.4-12-12c-8.6-61.7-14.6-133.5-13.9-213.4c0.6-68.9,6.2-131.5,13.9-186.4
		c0-0.8,0.1-5,3.5-8.5c2.2-2.2,5.2-3.5,8.5-3.5c32.6-10.2,82.5-22.9,144.1-26.6c87.7-5.3,100.9,13.3,195,13
		c107-0.4,127.9-24.7,219-16c54.6,5.2,98.4,18.9,127,29.6c1,0,5.2,0.2,8.5,3.5c2.2,2.2,3.5,5.2,3.5,8.5c8.1,52.9,14,113.4,15,180.4
		c1.2,83-5.5,156.9-15,219.4L1320,698.4z"/>
	<path class="st2" d="M935.4,598.9c-32.8,64.4-10.9,134.4,0,169.3c14.8,47.3,53.1,84.3,125.4,159.9c38.9,40.6,51.8,48.9,64.1,54.9
		c47.6,23,116.7,25.9,159-5c78.2-57.2,48.6-218-5.8-313.2c-13.6-23.9-90.6-148.7-209-150.5C1018,513.5,962.4,545.9,935.4,598.9"/>
	<path class="st2" d="M985.6,373.2c-38.3,4.1-67.1,31.3-83.6,47c-13.1,12.5-19.7,21.1-25.1,28.2c-49.8,66.2-179.7,33.4-183.9,56.4
		c-2.7,14.5,44.8,47.6,100.3,56.4c64.9,10.4,99.2-19,117,0c21.1,22.5-36.2,76.1-33.4,159.9c2.4,73.2,47.9,146,75.2,141.1
		c25.2-4.5-4.8-97.1,41.8-159.9c64.7-87.2,213.5-35.4,225.7-84.7c4.9-19.7-19.2-27.1-75.2-112.9c-38.3-58.6-43.4-80.1-75.2-103.5
		C1055.5,391.4,1025,369,985.6,373.2"/>
	<path class="st3" d="M988.6,367.3c4.7-5.9,7.5-2.7,73.1,0c13.8,0.6,22.7,0.8,26.6,8.6c4.2,8.4,0.6,21.6-13.3,51.7
		c-23.8,51.6-35.7,77.5-46.5,77.5C999.9,505.1,966.1,395.5,988.6,367.3"/>
	<path class="st4" d="M693,514.3c-4.7-3.6-4.3-15,0-18.8c4.4-3.9,22.3,0.7,16.7,0c0,0-1.4,14.6-8.4,18.8
		C698.8,515.8,695.3,516.1,693,514.3"/>
	<path class="st5" d="M910.4,586.9c-2.8,6.8-5.6,13.7-8.4,20.5c51,15.9,92.1,12.3,116.4,7.8c4.7-0.9,27.4-5.3,57-18
		c42.4-18.3,74-43,94.2-61.5c-7.2-10.2-14.4-20.5-21.6-30.8c-23.1,21.1-54.1,44.6-92.4,61.5c-36.4,16.1-66.9,20.3-80.1,21.7
		C958.5,589.9,936.3,590.6,910.4,586.9"/>
	<path class="st3" d="M902,448c-0.8,1.5,5.5,7.6,13,11c14.8,6.8,32,2.2,32,0c0-1.4-6.9-1.1-25-6C908.7,449.4,902.7,446.7,902,448"/>
	<rect y="650" class="st6" width="1920" height="429"/>
	<rect y="647" class="st7" width="1920" height="88"/>
	<path class="st2" d="M852.2,678.2c-7.5-12.6-11.7-34.9,1.2-46.5c12.6-11.3,32.3-4.4,34.6-3.6c12.3,4.5,27.3,16.9,26.8,34
		c-0.5,20.8-23.7,37.2-41.7,33.4C860.9,692.9,854.4,681.9,852.2,678.2"/>
	<path class="st3" d="M882,670c-0.4,0.4,3.2,3.5,6,10c2.7,6.4,2.4,11,3,11c0.7,0,2.3-6.2,0-12C888.5,672.9,882.5,669.5,882,670"/>
	<path class="st3" d="M896.5,660.5c-0.4,0.4,3.2,3.5,6,10c2.7,6.4,2.4,11,3,11c0.7,0,2.3-6.2,0-12C903,663.4,897,660,896.5,660.5"/>
	<path class="st3" d="M907.5,649.5c-0.4,0.4,3.2,3.5,6,10c2.7,6.4,2.4,11,3,11c0.7,0,2.3-6.2,0-12C914,652.4,908,649,907.5,649.5"/>
	<path class="st2" d="M1154.6,662.2c7.5-12.6,11.7-34.9-1.2-46.5c-12.6-11.3-32.3-4.4-34.6-3.6c-12.3,4.5-27.3,16.9-26.8,34
		c0.5,20.8,23.7,37.2,41.7,33.4C1145.9,676.9,1152.5,665.9,1154.6,662.2"/>
	<path class="st3" d="M1124.8,654c0.4,0.4-3.2,3.5-6,10c-2.7,6.4-2.4,11-3,11c-0.7,0-2.3-6.2,0-12
		C1118.3,656.9,1124.3,653.5,1124.8,654"/>
	<path class="st3" d="M1110.3,644.5c0.4,0.4-3.2,3.5-6,10c-2.7,6.4-2.4,11-3,11c-0.7,0-2.3-6.2,0-12
		C1103.8,647.4,1109.8,644,1110.3,644.5"/>
	<path class="st3" d="M1099.3,633.5c0.4,0.4-3.2,3.5-6,10c-2.7,6.4-2.4,11-3,11c-0.7,0-2.3-6.2,0-12
		C1092.8,636.4,1098.8,633,1099.3,633.5"/>
</g>
<text transform="matrix(1 0 0 1 476.8633 227.7402)" class="st8 st9 st10">z</text>
<text transform="matrix(1 0 0 1 503.8135 504.7202)" class="st8 st9 st10">z</text>
<text transform="matrix(1 0 0 1 358 393.1514)" class="st8 st9 st11">z</text>
<text transform="matrix(1 0 0 1 1446.9922 364.2178)" class="st8 st9 st11">z</text>
<g>
	<defs>
		<rect id="SVGID_3_" width="1920" height="1080"/>
	</defs>
	<clipPath id="SVGID_4_">
		<use xlink:href="#SVGID_3_"  style="overflow:visible;"/>
	</clipPath>
	<g class="st12">
		<text transform="matrix(1 0 0 1 609 179.1514)" class="st8 st9 st11">z</text>
	</g>
</g>
<text transform="matrix(1 0 0 1 1220 165.71)" class="st8 st9 st13">z</text>
<text transform="matrix(1 0 0 1 1347 212.1719)" class="st8 st9 st14">z</text>
<text transform="matrix(1 0 0 1 1407.0391 462.2031)" class="st8 st9 st14">z</text>
<text transform="matrix(1 0 0 1 525.0171 364.1655)" class="st8 st9 st14">z</text>
<g>
	<defs>
		<rect id="SVGID_5_" width="1920" height="1080"/>
	</defs>
	<clipPath id="SVGID_6_">
		<use xlink:href="#SVGID_5_"  style="overflow:visible;"/>
	</clipPath>
	<g class="st15">
		<text transform="matrix(1 0 0 1 256.3027 179.3281)" class="st8 st9 st16">z</text>
	</g>
	<path class="st17" d="M1421,979H527c-6.6,0-12-5.4-12-12V858c0-6.6,5.4-12,12-12h894c6.6,0,12,5.4,12,12v109
		C1433,973.6,1427.6,979,1421,979"/>
	<g class="st15">
		<text transform="matrix(1 0 0 1 1433.4121 147.8203)" class="st8 st9 st18">z</text>
	</g>
</g>
<text transform="matrix(1 0 0 1 558.7905 937.0615)" class="st19 st9 st20">Time to wake up Pepper!</text>
</svg>
